<svg id="Layer_1" xmlns="http://www.w3.org/2000/svg" viewBox="0 0 145.6 165.5"><style>.st0{fill:#ce3a78}.st1{fill:none}</style><path class="st0" d="M0 53v99.1c0 7.4 5.9 13.4 13.2 13.4h119.1c7.3 0 13.2-6 13.2-13.4V53H0zm36.4 102.6H9.9v-26.5h26.5v26.5zm0-33.1H9.9V96h26.5v26.5zm0-33.1H9.9V62.9h26.5v26.5zm33.1 66.2H43v-26.5h26.5v26.5zm0-33.1H43V96h26.5v26.5zm0-33.1H43V62.9h26.5v26.5zm33.1 66.2H76.1v-26.5h26.5v26.5zm0-33.1H76.1V96h26.5v26.5zm0-33.1H76.1V62.9h26.5v26.5zm33.1 66.2h-26.5v-26.5h26.5v26.5zm0-33.1h-26.5V96h26.5v26.5zm0-33.1h-26.5V62.9h26.5v26.5zM132.4 19.9h-21.5V5c0-2.7-2.2-5-5-5-2.7 0-5 2.2-5 5v14.9H44.7V5c0-2.7-2.2-5-5-5-2.7 0-5 2.2-5 5v14.9H13.2C5.9 19.9 0 25.8 0 33.2v13.1h145.6V33.2c0-7.4-5.9-13.3-13.2-13.3z"/><path class="st0" d="M39.7 43c-5.5 0-9.9-4.5-9.9-9.9 0-3.7 2-6.9 5-8.6v8.6c0 2.7 2.2 5 5 5 2.7 0 5-2.2 5-5v-8.6c3 1.7 5 4.9 5 8.6-.2 5.5-4.6 9.9-10.1 9.9zM100.9 24.5v8.6c0 2.7 2.2 5 5 5 2.7 0 5-2.2 5-5v-8.6c3 1.7 5 4.9 5 8.6 0 5.5-4.4 9.9-9.9 9.9s-9.9-4.5-9.9-9.9"/><path class="st1" d="M0 0h145.6v165.5H0z"/></svg>