<svg id="Layer_1" xmlns="http://www.w3.org/2000/svg" viewBox="0 0 559.3 291.4"><style>.st0{fill:#e44428}.st1{fill:#223d56}.st2{fill:#efb61d}.st3{fill:#e34329}</style><path class="st0" d="M0 0h83.6v83.6H0z" id="XMLID_150_"/><path class="st1" d="M0 92.5h83.6v83.6H0z" id="XMLID_147_"/><path class="st2" d="M93 0h83.6v83.6H93z" id="XMLID_144_"/><g id="XMLID_37_"><path id="XMLID_141_" class="st3" d="M120.2 120.7h16.4c6.3 0 11.1 1.8 14.4 5.3 3.3 3.5 5 8.4 5 14.7v36.1c0 7.2-1.8 12.6-5.3 16-3.5 3.4-8.5 5.1-15.1 5.1h-15.4v-77.2zm11 66.8h5.1c3.1 0 5.3-.8 6.6-2.3 1.3-1.6 2-4 2-7.3v-37.2c0-3-.6-5.4-1.8-7-1.2-1.7-3.5-2.5-6.7-2.5h-5.1v56.3z"/><path id="XMLID_139_" class="st3" d="M166.4 120.7h32.9v10.4h-21.9v22.7h19.1v10.4h-19.1v22.7h21.9V198h-32.9v-77.3z"/><path id="XMLID_137_" class="st3" d="M244.4 142.9h-11.1v-2.5c0-2.5-.6-4.7-1.8-6.6-1.2-1.8-3.2-2.8-6-2.8-1.5 0-2.8.3-3.7.9-1 .6-1.7 1.3-2.3 2.2-.5.9-.9 2-1.1 3.1-.2 1.2-.3 2.4-.3 3.7 0 1.5.1 2.8.2 3.8s.4 2 .8 2.7c.4.8 1.1 1.4 1.9 2 .8.6 2 1.2 3.4 1.7l8.5 3.4c2.5.9 4.4 2 6 3.3 1.5 1.3 2.7 2.7 3.5 4.4.8 1.7 1.4 3.6 1.7 5.9.3 2.2.4 4.7.4 7.5 0 3.3-.3 6.3-1 9.1s-1.7 5.2-3.2 7.2c-1.5 2-3.5 3.6-5.9 4.7-2.5 1.2-5.5 1.7-9 1.7-2.7 0-5.2-.5-7.5-1.4-2.3-.9-4.3-2.2-6-3.8-1.7-1.6-3-3.6-4-5.8-1-2.2-1.5-4.7-1.5-7.3v-4.1h11.1v3.5c0 2 .6 3.8 1.8 5.5 1.2 1.6 3.2 2.4 6 2.4 1.9 0 3.3-.3 4.4-.8 1-.5 1.8-1.3 2.4-2.3.5-1 .9-2.2 1-3.6.1-1.4.2-3 .2-4.8 0-2-.1-3.7-.2-5-.1-1.3-.5-2.3-.9-3.1-.5-.8-1.1-1.4-2-2-.8-.5-1.9-1-3.3-1.6L219 161c-4.8-2-8-4.5-9.6-7.7-1.6-3.2-2.4-7.2-2.4-12.1 0-2.9.4-5.6 1.2-8.2.8-2.6 2-4.8 3.5-6.7 1.6-1.9 3.5-3.4 5.9-4.5 2.4-1.1 5.2-1.7 8.3-1.7 2.7 0 5.3.5 7.5 1.5 2.3 1 4.2 2.3 5.9 4 1.6 1.7 2.9 3.5 3.7 5.6s1.3 4.2 1.3 6.3v5.4z"/><path id="XMLID_135_" class="st3" d="M255.1 120.7h11.1v77.2h-11.1v-77.2z"/><path id="XMLID_133_" class="st3" d="M276.3 138.9c0-3.1.5-5.9 1.6-8.2s2.5-4.4 4.3-5.9c1.8-1.6 3.8-2.7 6-3.5 2.2-.8 4.4-1.2 6.7-1.2 2.2 0 4.5.4 6.7 1.2 2.2.8 4.2 2 6 3.5 1.8 1.6 3.2 3.5 4.3 5.9 1.1 2.4 1.6 5.1 1.6 8.2v3.9h-11.1v-3.9c0-2.7-.7-4.6-2.2-5.9-1.5-1.3-3.2-1.9-5.3-1.9-2 0-3.8.6-5.3 1.9-1.5 1.3-2.2 3.2-2.2 5.9v40.8c0 2.7.7 4.6 2.2 5.9 1.5 1.3 3.2 1.9 5.3 1.9 2 0 3.8-.6 5.3-1.9 1.5-1.3 2.2-3.2 2.2-5.9v-14.5h-8.8v-9.8h19.8v24.3c0 3.2-.5 5.9-1.6 8.3-1.1 2.3-2.5 4.3-4.3 5.9-1.8 1.6-3.8 2.7-6 3.5-2.2.8-4.4 1.2-6.7 1.2-2.2 0-4.5-.4-6.7-1.2-2.2-.8-4.2-2-6-3.5-1.8-1.6-3.2-3.5-4.3-5.9-1.1-2.3-1.6-5.1-1.6-8.3v-40.8z"/><path id="XMLID_131_" class="st3" d="M324.8 120.7h10.6l16.7 46.5h.2v-46.5h11.1v77.2H353l-16.9-46.4h-.2v46.4h-11.1v-77.2z"/><path id="XMLID_129_" class="st3" d="M155.3 273.6c0 2.4-.5 4.7-1.4 6.8-.9 2.2-2.2 4.1-3.7 5.7-1.6 1.6-3.5 2.9-5.6 3.9-2.1 1-4.4 1.5-6.9 1.5-2.1 0-4.2-.3-6.4-.9-2.2-.6-4.1-1.6-5.9-3-1.7-1.4-3.2-3.3-4.3-5.6-1.1-2.3-1.7-5.2-1.7-8.8v-42.5c0-2.5.4-4.9 1.3-7 .9-2.2 2.1-4 3.7-5.6 1.6-1.6 3.5-2.8 5.7-3.7 2.2-.9 4.6-1.4 7.3-1.4 2.5 0 4.9.5 7 1.4 2.2.9 4 2.2 5.6 3.8 1.6 1.6 2.8 3.6 3.7 5.9.9 2.3 1.4 4.8 1.4 7.4v4.3H144V232c0-2.2-.6-4-1.8-5.6-1.2-1.6-2.9-2.4-5-2.4-2.7 0-4.6.9-5.5 2.5-.9 1.7-1.4 3.8-1.4 6.4v39.5c0 2.2.5 4.1 1.5 5.6s2.7 2.3 5.3 2.3c.7 0 1.5-.1 2.3-.4.8-.3 1.6-.7 2.3-1.2.7-.6 1.2-1.4 1.7-2.4.4-1 .7-2.3.7-3.8v-3.8h11.1v4.9z"/><path id="XMLID_126_" class="st3" d="M163.6 231.8c0-3.1.5-5.9 1.6-8.2 1.1-2.4 2.5-4.4 4.3-5.9 1.8-1.6 3.8-2.7 6-3.5 2.2-.8 4.4-1.2 6.7-1.2 2.2 0 4.5.4 6.7 1.2 2.2.8 4.2 2 6 3.5 1.8 1.6 3.2 3.5 4.3 5.9 1.1 2.4 1.6 5.1 1.6 8.2v40.8c0 3.2-.5 5.9-1.6 8.3-1.1 2.3-2.5 4.3-4.3 5.9-1.8 1.6-3.8 2.7-6 3.5-2.2.8-4.4 1.2-6.7 1.2-2.2 0-4.5-.4-6.7-1.2-2.2-.8-4.2-2-6-3.5-1.8-1.6-3.2-3.5-4.3-5.9-1.1-2.3-1.6-5.1-1.6-8.3v-40.8zm11.1 40.8c0 2.7.7 4.6 2.2 5.9 1.5 1.3 3.2 1.9 5.3 1.9 2 0 3.8-.6 5.3-1.9 1.5-1.3 2.2-3.2 2.2-5.9v-40.8c0-2.7-.7-4.6-2.2-5.9-1.5-1.3-3.2-1.9-5.3-1.9-2 0-3.8.6-5.3 1.9-1.5 1.3-2.2 3.2-2.2 5.9v40.8z"/><path id="XMLID_124_" class="st3" d="M210.5 213.6h32.9V224h-21.9v23.4h19.1v10.4h-19.1v32.9h-11.1v-77.1z"/><path id="XMLID_121_" class="st3" d="M249.9 231.8c0-3.1.5-5.9 1.6-8.2 1.1-2.4 2.5-4.4 4.3-5.9 1.8-1.6 3.8-2.7 6-3.5 2.2-.8 4.4-1.2 6.7-1.2 2.2 0 4.5.4 6.7 1.2 2.2.8 4.2 2 6 3.5 1.8 1.6 3.2 3.5 4.3 5.9 1.1 2.4 1.6 5.1 1.6 8.2v40.8c0 3.2-.5 5.9-1.6 8.3-1.1 2.3-2.5 4.3-4.3 5.9-1.8 1.6-3.8 2.7-6 3.5-2.2.8-4.4 1.2-6.7 1.2-2.2 0-4.5-.4-6.7-1.2-2.2-.8-4.2-2-6-3.5-1.8-1.6-3.2-3.5-4.3-5.9-1.1-2.3-1.6-5.1-1.6-8.3v-40.8zm11.1 40.8c0 2.7.7 4.6 2.2 5.9 1.5 1.3 3.2 1.9 5.3 1.9 2 0 3.8-.6 5.3-1.9 1.5-1.3 2.2-3.2 2.2-5.9v-40.8c0-2.7-.7-4.6-2.2-5.9-1.5-1.3-3.2-1.9-5.3-1.9-2 0-3.8.6-5.3 1.9-1.5 1.3-2.2 3.2-2.2 5.9v40.8z"/><path id="XMLID_119_" class="st3" d="M332.5 273.5c0 2.5-.5 4.9-1.4 7-.9 2.2-2.2 4.1-3.8 5.7s-3.5 2.9-5.7 3.8c-2.2.9-4.5 1.4-6.9 1.4-2.5 0-4.8-.5-6.9-1.4-2.2-.9-4.1-2.2-5.7-3.8-1.6-1.6-2.9-3.5-3.8-5.7-.9-2.2-1.4-4.5-1.4-7v-59.8H308v58.7c0 2.7.7 4.8 2 6.1 1.3 1.3 2.9 2 4.9 2 2 0 3.6-.7 4.9-2 1.3-1.3 2-3.3 2-6.1v-58.7h11.1v59.8z"/><path id="XMLID_117_" class="st3" d="M342.5 213.6h10.6l16.7 46.5h.2v-46.5h11.1v77.2h-10.4l-16.9-46.4h-.2v46.4h-11.1v-77.2z"/><path id="XMLID_59_" class="st3" d="M391 213.6h16.4c6.3 0 11.1 1.8 14.4 5.3 3.3 3.5 5 8.4 5 14.7v36.1c0 7.2-1.8 12.6-5.3 16-3.5 3.4-8.5 5.1-15.1 5.1H391v-77.2zm11.1 66.8h5.1c3.1 0 5.3-.8 6.6-2.3 1.3-1.6 2-4 2-7.3v-37.2c0-3-.6-5.4-1.8-7-1.2-1.7-3.5-2.5-6.7-2.5h-5.1v56.3z"/><path id="XMLID_56_" class="st3" d="M437.2 213.6h32.9V224h-21.9v22.7h19.1v10.4h-19.1v22.7h21.9v11.1h-32.9v-77.3z"/><path id="XMLID_44_" class="st3" d="M477.3 213.6h17.8c13 0 19.5 7.6 19.5 22.7 0 4.5-.7 8.3-2.1 11.5-1.4 3.2-3.9 5.8-7.4 7.7l11.9 35.2h-11.7L495 257.8h-6.6v32.9h-11.1v-77.1zm11.1 34.5h6.3c2 0 3.5-.3 4.7-.8 1.2-.5 2-1.3 2.7-2.3.6-1 1-2.3 1.2-3.7.2-1.5.3-3.2.3-5.1 0-2-.1-3.7-.3-5.1-.2-1.5-.7-2.7-1.4-3.8-.7-1-1.6-1.8-2.9-2.3-1.2-.5-2.9-.8-4.9-.8h-5.7v23.9z"/><path id="XMLID_38_" class="st3" d="M559.3 235.8h-11.1v-2.5c0-2.5-.6-4.7-1.8-6.6-1.2-1.8-3.2-2.8-6-2.8-1.5 0-2.8.3-3.7.9-1 .6-1.7 1.3-2.3 2.2-.5.9-.9 2-1.1 3.1-.2 1.2-.3 2.4-.3 3.7 0 1.5.1 2.8.2 3.8s.4 2 .8 2.7c.4.8 1.1 1.4 1.9 2 .8.6 2 1.2 3.4 1.7l8.5 3.4c2.5.9 4.4 2 6 3.3 1.5 1.3 2.7 2.7 3.5 4.4.8 1.7 1.4 3.6 1.7 5.9.3 2.2.4 4.7.4 7.5 0 3.3-.3 6.3-1 9.1s-1.7 5.2-3.2 7.2c-1.5 2-3.5 3.6-5.9 4.7-2.5 1.2-5.5 1.7-9 1.7-2.7 0-5.2-.5-7.5-1.4-2.3-.9-4.3-2.2-6-3.8-1.7-1.6-3-3.6-4-5.8-1-2.2-1.5-4.7-1.5-7.3V269h11.1v3.5c0 2 .6 3.8 1.8 5.5 1.2 1.6 3.2 2.4 6 2.4 1.9 0 3.3-.3 4.4-.8 1-.5 1.8-1.3 2.4-2.3.5-1 .9-2.2 1-3.6.1-1.4.2-3 .2-4.8 0-2-.1-3.7-.2-5-.1-1.3-.5-2.3-.9-3.1-.5-.8-1.1-1.4-2-2-.8-.5-1.9-1-3.3-1.6l-7.9-3.3c-4.8-2-8-4.5-9.6-7.7-1.6-3.2-2.4-7.2-2.4-12.1 0-2.9.4-5.6 1.2-8.2.8-2.6 2-4.8 3.5-6.7 1.6-1.9 3.5-3.4 5.9-4.5 2.4-1.1 5.2-1.7 8.3-1.7 2.7 0 5.3.5 7.5 1.5 2.3 1 4.2 2.3 5.9 4 1.6 1.7 2.9 3.5 3.7 5.6.9 2.1 1.3 4.2 1.3 6.3v5.4z"/></g></svg>