<svg id="Layer_1" xmlns="http://www.w3.org/2000/svg" viewBox="0 0 1231.1 979.4"><style>.st1{fill:none;stroke:#34356B;stroke-width:45;stroke-linecap:round;stroke-miterlimit:10;} .st2{fill:none;stroke:#34356B;stroke-width:42;stroke-linecap:round;stroke-miterlimit:10;}</style><g class="st0"><path class="st1" d="M180.2 23.9l383.2 330.3M180.2 87.3l344.6 297M182.2 152.4l309.4 266.7M179.7 213.7l274.5 236.5M1048.5 956.7L665.3 626.4M1048.5 893.3l-344.6-297M1046.4 828.2L737.1 561.5M1048.9 766.9L774.4 530.3"/><g><path class="st1" d="M22.5 22.5v934.4M74.5 22.5v934.4M126.5 22.5v934.4M178.5 22.5v934.4"/></g><g><path class="st1" d="M1052.6 22.5v934.4M1104.6 22.5v934.4M1156.6 22.5v934.4M1208.6 22.5v934.4"/></g><g><path class="st2" d="M1051.3 21.7L186.5 760.6M1051.3 80.5L180.6 830.9M1043.6 150.4l-860.7 742M1044.4 215.1L179.8 953.9"/></g></g></svg>