<svg id="Layer_1" xmlns="http://www.w3.org/2000/svg" viewBox="0 0 238.1 188.5"><style>.st0{fill:none;stroke:#5f3a6e;stroke-width:4;stroke-linecap:round;stroke-miterlimit:10}</style><path class="st0" d="M33.1 2.3l75.7 65.2M33.1 14.8l68 58.6M33.5 27.6l61.1 52.7M33 39.7l54.2 46.7M204.5 186.4l-75.6-65.2M204.5 173.9l-68-58.6M204.1 161l-61-52.6M204.6 148.9l-54.2-46.7"/><g><path class="st0" d="M2 2v184.5M12.3 2v184.5M22.5 2v184.5M32.8 2v184.5"/></g><g><path class="st0" d="M205.3 2v184.5M215.6 2v184.5M225.9 2v184.5M236.1 2v184.5"/></g><g><path class="st0" d="M205.1 2.6L34.4 148.5M205.1 13.8L33.2 162M203.6 27.6L33.7 174.1M203.7 40L33.1 185.8"/></g></svg>