<svg id="Layer_1" xmlns="http://www.w3.org/2000/svg" viewBox="0 0 422 192"><style>.st0{fill:#603b6f}.st1{fill:#fff}</style><path class="st0" d="M205.2 71.3c-.5 0-.9-.2-1.3-.5L128 5.9c-.8-.7-.9-2-.2-2.8.7-.8 2-.9 2.8-.2l75.9 64.9c.8.7.9 2 .2 2.8-.4.5-1 .7-1.5.7zM197.6 77.3c-.5 0-.9-.2-1.3-.5L128 18.4c-.8-.7-.9-2-.2-2.8.7-.8 2-.9 2.8-.2l68.3 58.4c.8.7.9 2 .2 2.8-.4.4-1 .7-1.5.7zM191 84.1c-.5 0-.9-.2-1.3-.5l-61.3-52.4c-.8-.7-.9-2-.2-2.8.7-.8 2-.9 2.8-.2l61.3 52.4c.8.7.9 2 .2 2.8-.3.5-.9.7-1.5.7zM183.7 90.3c-.5 0-.9-.2-1.3-.5L128 43.4c-.8-.7-.9-2-.2-2.8.7-.8 2-.9 2.8-.2L185 86.8c.8.7.9 2 .2 2.8-.4.5-.9.7-1.5.7zM301.4 189.8c-.5 0-.9-.2-1.3-.5l-75.9-64.9c-.8-.7-.9-2-.2-2.8.7-.8 2-.9 2.8-.2l75.9 64.9c.8.7.9 2 .2 2.8-.4.5-.9.7-1.5.7zM301.3 177.3c-.5 0-.9-.2-1.3-.5l-68.3-58.4c-.8-.7-.9-2-.2-2.8.7-.8 2-.9 2.8-.2l68.3 58.4c.8.7.9 2 .2 2.8-.3.5-.9.7-1.5.7zM300.9 164.5c-.5 0-.9-.2-1.3-.5l-61.3-52.4c-.8-.7-.9-2-.2-2.8.7-.8 2-.9 2.8-.2l61.3 52.4c.8.7.9 2 .2 2.8-.4.4-.9.7-1.5.7zM301.3 152.4c-.5 0-.9-.2-1.3-.5l-54.4-46.5c-.8-.7-.9-2-.2-2.8.7-.8 2-.9 2.8-.2l54.4 46.5c.8.7.9 2 .2 2.8-.3.5-.9.7-1.5.7z"/><g><path class="st0" d="M98.9 190.7c-1.1 0-2-.9-2-2L96.2 4.2c0-1.1.9-2 2-2s2 .9 2 2l.7 184.5c0 1.1-.9 2-2 2zM109.1 190.6c-1.1 0-2-.9-2-2l-.7-184.4c0-1.1.9-2 2-2 1.2 0 2 .9 2 2l.7 184.5c0 1-.9 1.9-2 1.9zM119.4 190.6c-1.1 0-2-.9-2-2l-.7-184.4c0-1.1.9-2 2-2s2 .9 2 2l.7 184.5c0 1-.9 1.9-2 1.9zM129.7 190.6c-1.1 0-2-.9-2-2l-.8-184.5c0-1.1.9-2 2-2s2 .9 2 2l.7 184.5c.1 1.1-.8 2-1.9 2z"/></g><g><path class="st0" d="M302.2 189.9c-1.1 0-2-.9-2-2l-.7-184.5c0-1.1.9-2 2-2s2 .9 2 2l.7 184.5c0 1.1-.9 2-2 2zM312.5 189.9c-1.1 0-2-.9-2-2l-.7-184.5c0-1.1.9-2 2-2s2 .9 2 2l.7 184.5c0 1-.9 1.9-2 2zM322.7 189.8c-1.1 0-2-.9-2-2L320 3.4c0-1.1.9-2 2-2s2 .9 2 2l.7 184.5c0 1-.9 1.9-2 1.9zM333 189.8c-1.1 0-2-.9-2-2l-.7-184.5c0-1.1.9-2 2-2s2 .9 2 2l.7 184.5c0 1.1-.9 2-2 2z"/></g><g><path class="st0" d="M131.1 152.6c-.6 0-1.1-.2-1.5-.7-.7-.8-.6-2.1.2-2.8L299.9 2.5c.8-.7 2.1-.6 2.8.2.7.8.6 2.1-.2 2.8L132.4 152.1c-.4.3-.8.5-1.3.5zM130 166.1c-.6 0-1.1-.2-1.5-.7-.7-.8-.6-2.1.2-2.8L300 13.8c.8-.7 2.1-.6 2.8.2.7.8.6 2.1-.2 2.8L131.3 165.6c-.4.3-.8.5-1.3.5zM130.5 178.2c-.6 0-1.1-.2-1.5-.7-.7-.8-.6-2.1.2-2.8L298.5 27.6c.8-.7 2.1-.6 2.8.2s.6 2.1-.2 2.8L131.8 177.7c-.4.3-.9.5-1.3.5zM129.9 190c-.6 0-1.1-.2-1.5-.7-.7-.8-.6-2.1.2-2.8L298.7 39.9c.8-.7 2.1-.6 2.8.2.7.8.6 2.1-.2 2.8L131.2 189.5c-.3.3-.8.5-1.3.5z"/></g><g><path class="st1" d="M22.9 109.5l-8-13.4H8.6l.1 13.4H2.4l-.1-35.8 15.7-.1c7.1 0 11.8 4.5 11.8 11.2 0 6.3-4.2 9.9-8.5 10.6l8.9 14-7.3.1zm.5-24.7c0-3.4-2.6-5.6-6.2-5.6H8.5v11.4h8.7c3.6 0 6.2-2.3 6.2-5.8zM47 109.4l-.1-35.9 24.6-.1v5.5l-18.4.1v9.2l17.9-.1v5.5l-17.9.1v10l18.3-.1v5.5l-24.4.3zM88.7 109.2l-.1-35.9 13.3-.1c11.2 0 18.8 7.3 18.8 17.8 0 10.6-7.5 18-18.6 18l-13.4.2zm25.6-18c0-6.9-4.3-12.3-12.3-12.3h-7.1l.1 24.8h7c7.8-.1 12.3-5.7 12.3-12.5zM137.7 109l-.1-35.9h6.3l.1 35.9h-6.3zM160 103.9l3.5-4.9c2.4 2.6 6.4 5 11.4 5 5.2 0 7.1-2.6 7.1-5 0-7.5-20.9-2.8-20.9-15.9 0-6 5.1-10.6 13-10.6 5.5 0 10.1 1.8 13.4 5l-3.5 4.7c-2.9-2.8-6.7-4.1-10.4-4.1s-6 1.9-6 4.5c0 6.7 20.9 2.5 20.9 15.8 0 6-4.2 11.1-13.8 11.2-6.7 0-11.5-2.4-14.7-5.7zM203.4 90.9c0-11.1 8.2-18.6 18.7-18.6 7.2 0 11.7 3.7 14.4 8l-5.3 2.8c-1.7-3-5.2-5.2-9.1-5.2-7.1 0-12.3 5.4-12.3 13 0 7.5 5.3 12.9 12.4 12.9 3.8 0 7.3-2.3 9-5.2l5.4 2.7c-2.7 4.3-7.2 8.1-14.4 8.2-10.5-.1-18.8-7.6-18.8-18.6zM250.8 90.7c0-10.7 7.5-18.6 18.3-18.6 10.7 0 18.4 7.8 18.4 18.5s-7.6 18.6-18.3 18.6c-10.7 0-18.3-7.8-18.4-18.5zm30.2-.1c0-7.4-4.7-12.9-11.9-12.9-7.3 0-11.9 5.6-11.8 13 0 7.4 4.7 12.9 11.9 12.9 7.2-.1 11.9-5.7 11.8-13zM313.6 108.3l-14.2-35.8h7.1l11 28.9 10.7-29h7.2l-13.9 35.9h-7.9zM350.2 108.2l-.2-35.9 24.6-.1v5.5l-18.3.1V87l17.9-.1v5.5l-17.9.1v10l18.3-.1v5.5l-24.4.3zM412.4 108l-8-13.4h-6.3l.1 13.4h-6.3l-.1-35.9 15.8-.1c7.1 0 11.8 4.5 11.8 11.2 0 6.3-4.2 9.9-8.5 10.6l8.9 14-7.4.2zm.5-24.7c0-3.4-2.6-5.6-6.2-5.6H398v11.4h8.7c3.7-.1 6.2-2.3 6.2-5.8z"/></g><g><path class="st1" d="M121.8 151.9l-4.5-7.6h-3.6v7.6h-3.6l-.1-20.5h9c4.1 0 6.7 2.6 6.8 6.4 0 3.6-2.4 5.6-4.9 6l5.1 8-4.2.1zm.3-14.1c0-2-1.5-3.2-3.5-3.2h-4.9v6.5h4.9c2 0 3.5-1.3 3.5-3.3zM135.6 151.9l-.1-20.5 14-.1v3.2h-10.4v5.3h10.2v3.2h-10.2v5.7h10.4v3.2h-13.9zM159.4 151.8l-.1-20.5h3.6l.1 20.5h-3.6zM191.2 151.6l-.1-15.8-6.2 15.8h-1.5l-6.4-15.8.1 15.8h-3.6l-.1-20.5h5.1l5.6 14 5.5-14.1h5.1l.1 20.5-3.6.1zM219.7 151.5l-1.5-4h-9.4l-1.5 4h-4.1l8-20.5h4.5l8.1 20.5h-4.1zm-6.3-16.8l-3.6 9.8h7.4l-3.8-9.8zM230.2 141.3c0-6.5 4.8-10.6 10.7-10.6 4 0 6.6 1.9 8.2 4.2l-2.9 1.7c-1.1-1.5-3.1-2.7-5.3-2.7-4.1 0-7.1 3.1-7 7.4 0 4.3 3 7.4 7.1 7.4 2.1 0 3.9-1 4.8-1.9v-3.2h-6.1v-3.2h9.7v7.6c-2 2.2-4.9 3.8-8.4 3.8-6 .1-10.8-4.1-10.8-10.5zM259.3 151.4l-.1-20.5h3.6l.1 20.5h-3.6zM287.6 151.3l-10.7-14.6.1 14.7h-3.6l-.1-20.5h3.7l10.5 14.1-.1-14.2h3.6l.1 20.5h-3.5zM301.6 151.2l-.1-20.5 14-.1v3.2h-10.4v5.3h10.2v3.2h-10.2v5.7h10.4v3.2h-13.9z"/></g></svg>