<svg id="Layer_1" xmlns="http://www.w3.org/2000/svg" viewBox="0 0 146.3 182.8"><style>.st0{fill:#ce3a78}.st1{fill:none}</style><path class="st0" d="M73.1 36.6C53 36.6 36.6 53 36.6 73.1c0 20.2 16.4 36.6 36.6 36.6 20.2 0 36.6-16.4 36.6-36.6-.1-20.1-16.5-36.5-36.7-36.5zm0 60.9c-13.5 0-24.4-10.9-24.4-24.4s10.9-24.4 24.4-24.4 24.4 10.9 24.4 24.4-10.9 24.4-24.4 24.4z"/><path class="st0" d="M140.5 44.7c-3.7-8.7-9-16.5-15.7-23.2s-14.5-12-23.2-15.7C92.6 1.9 83 0 73.1 0S53.7 1.9 44.7 5.8c-8.7 3.7-16.5 9-23.2 15.7S9.4 36 5.8 44.7C1.9 53.7 0 63.3 0 73.1c0 16 5.1 31.1 14.6 43.9.1.1.1.2.2.3l48.7 60.9c2.3 2.9 5.8 4.6 9.5 4.6s7.2-1.7 9.5-4.6l48.7-60.9c.1-.1.2-.2.2-.3C141 104.3 146 89.1 146 73.1c.3-9.8-1.7-19.4-5.5-28.4zm-18.6 65l-48.7 60.9-48.7-60.9c-7.6-10.2-12.2-22.8-12.2-36.6 0-33.6 27.3-60.9 60.9-60.9 33.6 0 60.9 27.3 60.9 60.9 0 13.8-4.6 26.4-12.2 36.6zM175.3-57.4v10.9c0 .8.7 1.5 1.5 1.5h13.1c.8 0 1.5-.7 1.5-1.5v-10.9h-16.1zm4 11.3h-2.9V-49h2.9v2.9zm0-3.7h-2.9v-2.9h2.9v2.9zm0-3.6h-2.9v-2.9h2.9v2.9zm3.6 7.3H180V-49h2.9v2.9zm0-3.7H180v-2.9h2.9v2.9zm0-3.6H180v-2.9h2.9v2.9zm3.7 7.3h-2.9V-49h2.9v2.9zm0-3.7h-2.9v-2.9h2.9v2.9zm0-3.6h-2.9v-2.9h2.9v2.9zm3.6 7.3h-2.9V-49h2.9v2.9zm0-3.7h-2.9v-2.9h2.9v2.9zm0-3.6h-2.9v-2.9h2.9v2.9zM189.8-61.1h-2.4v-1.6c0-.3-.2-.5-.5-.5s-.5.2-.5.5v1.6h-6.2v-1.6c0-.3-.2-.5-.5-.5s-.5.2-.5.5v1.6h-2.4c-.8 0-1.5.7-1.5 1.5v1.4h16v-1.4c0-.8-.7-1.5-1.5-1.5z"/><path class="st0" d="M179.6-58.5c-.6 0-1.1-.5-1.1-1.1 0-.4.2-.8.5-.9v.9c0 .3.2.5.5.5s.5-.2.5-.5v-.9c.3.2.5.5.5.9.2.6-.3 1.1-.9 1.1zM186.4-60.6v.9c0 .3.2.5.5.5s.5-.2.5-.5v-.9c.3.2.5.5.5.9 0 .6-.5 1.1-1.1 1.1-.6 0-1.1-.5-1.1-1.1"/><path class="st1" d="M175.3-63.3h16v18.2h-16z"/></svg>