<svg id="Layer_1" xmlns="http://www.w3.org/2000/svg" viewBox="0 0 490 104.2"><style>.st0{fill:#003767}</style><path class="st0" d="M131.3 95.9V66.5c0-7.4-.5-14.5-6.8-20.4-4.2-4.1-8.6-5.8-14.5-5.8-5.7 0-14.3 2.9-19.7 9.1V1.6H72.6v4.2c.1 0 5.9-.9 5.9 5.2v84.9c0 2.7-7.9 3.9-8 4v3.1h27.9v-3.1c-.1 0-8-.9-8-3.9V59.3c.3-2 1.5-4.1 2.6-5.5 4.4-5.1 10-5.8 12.9-5.8 3.4 0 6.3 1.2 9.1 3.9 3.8 3.6 4.8 8.8 4.8 17.2v27c0 2.7-8 3.9-8 4v3.1H139.4v-3.1c-.1-.2-8.1-1.2-8.1-4.2zM274 95.9v-54c0-.1-.1-.1-.2-.2h-17.7v4.2c.1 0 5.9-.6 5.9 5.6V96c0 2.7-7.9 3.9-8 4v3.1h28V100c-.1-.1-8-1.1-8-4.1z"/><circle class="st0" cx="266.9" cy="22.5" r="7.1"/><path class="st0" d="M346.5 91.6c-.5-.6-.8-2.3-1-5v-85h-17.8v4.2c.1 0 5.6-.6 5.9 5.2v31.4c-4.6-1.3-9.6-2-14.8-2-8.5 0-16.1 3.2-21.6 9.1C290.6 56 287 64.8 287 74.1c0 0-.3 30.2 26.3 30.2 7.4 0 17-4 21.6-8.2l4.1 7 15.4-4.5v-2.9c-6.5-.1-7.9-4.1-7.9-4.1zm-13-6.7c0 1.5-.1 2.6-.8 4.7-1.4 3.6-7.5 7.6-15.1 7.5-10.9 0-18.6-10.2-18.6-26.6 0-7.8 1.8-14.7 6.1-19.3 4-4.1 9.1-5 12.6-5 9.3 0 13.1 4.7 14.5 7.5 1.2 2.2 1.2 4.8 1.2 6.7v24.5zM407.7 93.4c-.4-.6-.8-2.2-1-4.6l-.1-3.7V55.4c0-4.2-.2-7.4-3.3-10.5 0 0-3.1-4.6-19-4.6-6.8.3-15.5 3.3-19 8.7-2.8 4.4-1.4 7.9 1 10.1 1.2 1 2.8 1.7 4.5 1.7 3.9 0 7-3.1 7-7 0-1.6-.5-3-1.4-4.2.5-.9 3.9-6.6 13.4-5 8 1.4 5.5 19.2 5.5 19.2-3.5 1.1-28.9 9.2-32.7 19.5-5 13.6 4.3 18.5 4.4 18.5 2.7 1.5 5.7 2.3 8.8 2.3 9.9 0 18.7-7.5 20.6-9.3 1.4 5.6 5.1 8.6 10.3 8.7h.2v-.1l8.6-3.3v-2.9c-6.4.2-7.8-3.8-7.8-3.8zm-12.5-5.1c0 3.4-7.1 6-11.3 7.1-1 .3-2 .4-3 .4-4.8 0-8.5-3.3-8.5-7.7 0-8.3 9.7-12.3 16.8-15.3 2.4-1 4.5-1.9 6-2.8v18.3zM238.9 39.9c-6.5 0-14 7.1-17.9 12.7l-1.8-10.9h-15v4.2c.1 0 5.9-.6 5.9 5.6V96c0 2.7-7.9 3.9-8 4v3.1H230V100c-.1 0-8-.9-8-3.9V61.7c.1-.6.6-2.8 1.4-4.2 2.2-4.1 8.1-7.9 10-6.5 1.2 2.3 3.6 3.9 6.4 3.9 4 0 7.3-3.3 7.3-7.3 0-.8-.1-1.6-.4-2.4-.8-2.8-3.4-5.3-7.8-5.3zM39.7 44.7C23.2 34.2 19.3 29.7 18 21.9c-1.7-10 6.7-17.7 17.5-17.7C39 4.2 53.6 5.5 54 25.4h4V4.8C51.5 2.4 42.3 0 33.2 0 17.3 0 4.3 9.2 4.3 26.5c0 13.7 13.4 21.3 24.9 28.1 17.7 11.2 20.9 16.3 21 24.7 0 12.6-9.5 19.7-20.3 19.7-4.8 0-9.1-1.5-12.4-4.2-1.3-1.5.6-3 .6-3 2-2.1 3.1-4.9 2.9-8-.4-5.8-5.5-10.2-11.2-9.8C4 74.4-.4 79.5 0 85.3c.1 1.7.6 3.3 1.4 4.5 5.8 9.2 16.9 14.5 28.5 14.5 17.1 0 33.3-10.8 33.3-29.3 0-14.8-11.2-23-23.5-30.3zM482 95.9v-29c0-7.4-.9-14.5-7.2-20.4-4.2-4.1-8.6-6.2-14.5-6.2-5.7 0-14.2 3.2-19.7 9.5l-1.5-8.2h-16.2v4.2c.1 0 5.9-.7 5.9 5.8v44.3c0 2.7-8 3.9-8 4v3.1h27.9v-3.1c-.1 0-8-.9-8-3.9V59.6c.3-2 1.5-4.1 2.6-5.5 4.4-5.1 10-5.8 12.9-5.8 3.4 0 6.3 1.2 9.1 3.9 3.8 3.6 4.8 8.8 4.8 17.2V96c0 2.7-7.9 3.9-8 4v3.1H490V100c0-.1-8-1.1-8-4.1zM192.6 85.1l-.3.5c-2.4 4.7-9.1 9.4-17.3 9.4-11.3 0-19.3-10.3-19.3-24 0-2.9.1-5.1.3-6.4h38.5c0-23.6-19.3-24.2-22.7-24.2-3.4 0-12 .9-18.7 7.7-7.9 7.9-9.4 17.8-9.4 23 0 10.4 1.7 15.7 6.6 22.8 6.2 9 16.9 10.3 22.8 10.3 11.8 0 19.8-8.5 23.1-15.8.1-.3.3-.6.3-.9l.1-.4-3.8-1.8-.2-.2zm-21.3-39.5c9.2 0 12.2 9.6 12.2 12.2v1.5H157c2.4-8.8 7.4-13.7 14.3-13.7z"/></svg>