<svg id="Layer_1" data-name="Layer 1" xmlns="http://www.w3.org/2000/svg" viewBox="0 0 34.33 34.33"><defs><style>.cls-1{fill:none;stroke:#414042;stroke-miterlimit:10}.cls-2{fill:#414042}</style></defs><title>sm_linkedin</title><circle class="cls-1" cx="17.17" cy="17.17" r="16.67"/><path class="cls-2" d="M3621.45 2831.62a1.29 1.29 0 1 0 0 2.57 1.29 1.29 0 1 0 0-2.57z" transform="translate(-3608.65 -2819.96)"/><path class="cls-2" d="M11.55 15.24h2.47v7.44h-2.47z"/><path class="cls-2" d="M3628.74 2835a2.46 2.46 0 0 0-2.23 1.23v-1.05H3624v7.44h2.47v-4.15a1.69 1.69 0 0 1 .08-.6 1.35 1.35 0 0 1 1.27-.9c.89 0 1.25.68 1.25 1.68v4h2.47v-4.26c.05-2.3-1.17-3.39-2.8-3.39z" transform="translate(-3608.65 -2819.96)"/><circle class="cls-1" cx="17.17" cy="17.17" r="16.67"/><path class="cls-2" d="M3621.45 2831.62a1.29 1.29 0 1 0 0 2.57 1.29 1.29 0 1 0 0-2.57z" transform="translate(-3608.65 -2819.96)"/><path class="cls-2" d="M11.55 15.24h2.47v7.44h-2.47z"/><path class="cls-2" d="M3628.74 2835a2.46 2.46 0 0 0-2.23 1.23v-1.05H3624v7.44h2.47v-4.15a1.69 1.69 0 0 1 .08-.6 1.35 1.35 0 0 1 1.27-.9c.89 0 1.25.68 1.25 1.68v4h2.47v-4.26c.05-2.3-1.17-3.39-2.8-3.39z" transform="translate(-3608.65 -2819.96)"/></svg>