<svg id="Layer_1" data-name="Layer 1" xmlns="http://www.w3.org/2000/svg" viewBox="0 0 34.33 34.33"><defs><style>.cls-1{fill:#414042}.cls-2{fill:none;stroke:#414042;stroke-miterlimit:10}</style></defs><title>sm_twitter</title><path class="cls-1" d="M3506.47 2808.09v.15a7.19 7.19 0 0 1 0 .82 7.5 7.5 0 0 1-.23 1.28 7.63 7.63 0 0 1-1.56 3 7 7 0 0 1-3.73 2.31 7.95 7.95 0 0 1-2.29.21 7.35 7.35 0 0 1-3.45-1.07l-.09-.06h.24a5.23 5.23 0 0 0 3.4-1 .39.39 0 0 0 .1-.09h-1.34l-.08-.06-.07-.05-.07-.06-.08-.06-.07-.06-.07-.07-.06-.06-.07-.07-.06-.07-.06-.08-.05-.07-.06-.08v-.6a2.54 2.54 0 0 0 .56 0 3 3 0 0 0 .47-.06h.07a2.61 2.61 0 0 1-1.71-1.25 2.46 2.46 0 0 1-.34-1.33c.09 0 .18.09.27.12l.28.09.28.06a1 1 0 0 0 .31 0 .46.46 0 0 0-.08-.07l-.08-.07-.08-.06-.07-.07-.07-.07-.07-.08-.06-.07-.06-.08-.06-.09-.06-.08-.05-.08V2808.2a1 1 0 0 1 0-.1v-.21a.92.92 0 0 1 0-.1v-.1V2807.48a.93.93 0 0 1 0-.1V2806.5l.05-.08a.25.25 0 0 1 .07.07 7.45 7.45 0 0 0 4.09 2.48 7.18 7.18 0 0 0 1.13.16h.08a3.15 3.15 0 0 1-.06-.6 2.76 2.76 0 0 1 .07-.59 2.65 2.65 0 0 1 .2-.56 2.58 2.58 0 0 1 .32-.5 2.61 2.61 0 0 1 3.92-.13 1.85 1.85 0 0 0 .28-.06 5.14 5.14 0 0 0 1.27-.51.2.2 0 0 1 .09 0 2.21 2.21 0 0 1-.41.79 2.69 2.69 0 0 1-.66.6h.06a5.1 5.1 0 0 0 .69-.15 5.85 5.85 0 0 0 .59-.2.09.09 0 0 1 .07 0 3.84 3.84 0 0 1-.57.72 5.4 5.4 0 0 1-.98.15z" transform="translate(-3484.25 -2793.51)"/><circle class="cls-2" cx="17.17" cy="17.17" r="16.67"/><circle class="cls-2" cx="17.17" cy="17.17" r="16.67"/></svg>