<?xml version="1.0" encoding="utf-8"?>
<!-- Generator: Adobe Illustrator 19.2.1, SVG Export Plug-In . SVG Version: 6.00 Build 0)  -->
<svg version="1.1" id="Layer_1" xmlns="http://www.w3.org/2000/svg" xmlns:xlink="http://www.w3.org/1999/xlink" x="0px" y="0px"
	 viewBox="0 0 145.6 165.5" style="enable-background:new 0 0 145.6 165.5;" xml:space="preserve">
<style type="text/css">
	.st0{fill:#FFFFFF;}
	.st1{fill:none;}
</style>
<path class="st0" d="M0,53v99.1c0,7.4,5.9,13.4,13.2,13.4h119.1c7.3,0,13.2-6,13.2-13.4V53H0z M36.4,155.6H9.9v-26.5h26.5V155.6z
	 M36.4,122.5H9.9V96h26.5V122.5z M36.4,89.4H9.9V62.9h26.5V89.4z M69.5,155.6H43v-26.5h26.5V155.6z M69.5,122.5H43V96h26.5V122.5z
	 M69.5,89.4H43V62.9h26.5V89.4z M102.6,155.6H76.1v-26.5h26.5V155.6z M102.6,122.5H76.1V96h26.5V122.5z M102.6,89.4H76.1V62.9h26.5
	V89.4z M135.7,155.6h-26.5v-26.5h26.5V155.6z M135.7,122.5h-26.5V96h26.5V122.5z M135.7,89.4h-26.5V62.9h26.5V89.4z"/>
<path class="st0" d="M132.4,19.9h-21.5V5c0-2.7-2.2-5-5-5c-2.7,0-5,2.2-5,5v14.9H44.7V5c0-2.7-2.2-5-5-5c-2.7,0-5,2.2-5,5v14.9H13.2
	C5.9,19.9,0,25.8,0,33.2v13.1h145.6V33.2C145.6,25.8,139.7,19.9,132.4,19.9z"/>
<path class="st0" d="M39.7,43c-5.5,0-9.9-4.5-9.9-9.9c0-3.7,2-6.9,5-8.6v8.6c0,2.7,2.2,5,5,5c2.7,0,5-2.2,5-5v-8.6
	c3,1.7,5,4.9,5,8.6C49.6,38.6,45.2,43,39.7,43z"/>
<path class="st0" d="M100.9,24.5v8.6c0,2.7,2.2,5,5,5c2.7,0,5-2.2,5-5v-8.6c3,1.7,5,4.9,5,8.6c0,5.5-4.4,9.9-9.9,9.9
	c-5.5,0-9.9-4.5-9.9-9.9"/>
<rect y="0" class="st1" width="145.6" height="165.5"/>
</svg>
