<?xml version="1.0" encoding="utf-8"?>
<!-- Generator: Adobe Illustrator 19.2.0, SVG Export Plug-In . SVG Version: 6.00 Build 0)  -->
<svg version="1.1" id="Layer_1" xmlns="http://www.w3.org/2000/svg" xmlns:xlink="http://www.w3.org/1999/xlink" x="0px" y="0px"
	 viewBox="0 0 559.3 291.4" style="enable-background:new 0 0 559.3 291.4;" xml:space="preserve">
<style type="text/css">
	.st0{fill:#E44428;}
	.st1{fill:#223D56;}
	.st2{fill:#EFB61D;}
	.st3{fill:#E34329;}
</style>
<g id="XMLID_150_">
	<rect x="0" y="0" class="st0" width="83.6" height="83.6"/>
</g>
<g id="XMLID_147_">
	<rect x="0" y="92.5" class="st1" width="83.6" height="83.6"/>
</g>
<g id="XMLID_144_">
	<rect x="93" y="0" class="st2" width="83.6" height="83.6"/>
</g>
<g id="XMLID_37_">
	<path id="XMLID_141_" class="st3" d="M120.2,120.7h16.4c6.3,0,11.1,1.8,14.4,5.3c3.3,3.5,5,8.4,5,14.7v36.1c0,7.2-1.8,12.6-5.3,16
		c-3.5,3.4-8.5,5.1-15.1,5.1h-15.4V120.7z M131.2,187.5h5.1c3.1,0,5.3-0.8,6.6-2.3c1.3-1.6,2-4,2-7.3v-37.2c0-3-0.6-5.4-1.8-7
		c-1.2-1.7-3.5-2.5-6.7-2.5h-5.1V187.5z"/>
	<path id="XMLID_139_" class="st3" d="M166.4,120.7h32.9v10.4h-21.9v22.7h19.1v10.4h-19.1v22.7h21.9v11.1h-32.9V120.7z"/>
	<path id="XMLID_137_" class="st3" d="M244.4,142.9h-11.1v-2.5c0-2.5-0.6-4.7-1.8-6.6c-1.2-1.8-3.2-2.8-6-2.8
		c-1.5,0-2.8,0.3-3.7,0.9c-1,0.6-1.7,1.3-2.3,2.2c-0.5,0.9-0.9,2-1.1,3.1c-0.2,1.2-0.3,2.4-0.3,3.7c0,1.5,0.1,2.8,0.2,3.8
		c0.1,1,0.4,2,0.8,2.7c0.4,0.8,1.1,1.4,1.9,2c0.8,0.6,2,1.2,3.4,1.7l8.5,3.4c2.5,0.9,4.4,2,6,3.3c1.5,1.3,2.7,2.7,3.5,4.4
		c0.8,1.7,1.4,3.6,1.7,5.9c0.3,2.2,0.4,4.7,0.4,7.5c0,3.3-0.3,6.3-1,9.1c-0.7,2.8-1.7,5.2-3.2,7.2c-1.5,2-3.5,3.6-5.9,4.7
		c-2.5,1.2-5.5,1.7-9,1.7c-2.7,0-5.2-0.5-7.5-1.4c-2.3-0.9-4.3-2.2-6-3.8c-1.7-1.6-3-3.6-4-5.8c-1-2.2-1.5-4.7-1.5-7.3v-4.1h11.1
		v3.5c0,2,0.6,3.8,1.8,5.5c1.2,1.6,3.2,2.4,6,2.4c1.9,0,3.3-0.3,4.4-0.8c1-0.5,1.8-1.3,2.4-2.3c0.5-1,0.9-2.2,1-3.6
		c0.1-1.4,0.2-3,0.2-4.8c0-2-0.1-3.7-0.2-5c-0.1-1.3-0.5-2.3-0.9-3.1c-0.5-0.8-1.1-1.4-2-2c-0.8-0.5-1.9-1-3.3-1.6L219,161
		c-4.8-2-8-4.5-9.6-7.7c-1.6-3.2-2.4-7.2-2.4-12.1c0-2.9,0.4-5.6,1.2-8.2c0.8-2.6,2-4.8,3.5-6.7c1.6-1.9,3.5-3.4,5.9-4.5
		c2.4-1.1,5.2-1.7,8.3-1.7c2.7,0,5.3,0.5,7.5,1.5c2.3,1,4.2,2.3,5.9,4c1.6,1.7,2.9,3.5,3.7,5.6s1.3,4.2,1.3,6.3V142.9z"/>
	<path id="XMLID_135_" class="st3" d="M255.1,120.7h11.1v77.2h-11.1V120.7z"/>
	<path id="XMLID_133_" class="st3" d="M276.3,138.9c0-3.1,0.5-5.9,1.6-8.2s2.5-4.4,4.3-5.9c1.8-1.6,3.8-2.7,6-3.5
		c2.2-0.8,4.4-1.2,6.7-1.2c2.2,0,4.5,0.4,6.7,1.2c2.2,0.8,4.2,2,6,3.5c1.8,1.6,3.2,3.5,4.3,5.9c1.1,2.4,1.6,5.1,1.6,8.2v3.9h-11.1
		v-3.9c0-2.7-0.7-4.6-2.2-5.9c-1.5-1.3-3.2-1.9-5.3-1.9c-2,0-3.8,0.6-5.3,1.9c-1.5,1.3-2.2,3.2-2.2,5.9v40.8c0,2.7,0.7,4.6,2.2,5.9
		c1.5,1.3,3.2,1.9,5.3,1.9c2,0,3.8-0.6,5.3-1.9c1.5-1.3,2.2-3.2,2.2-5.9v-14.5h-8.8v-9.8h19.8v24.3c0,3.2-0.5,5.9-1.6,8.3
		c-1.1,2.3-2.5,4.3-4.3,5.9c-1.8,1.6-3.8,2.7-6,3.5c-2.2,0.8-4.4,1.2-6.7,1.2c-2.2,0-4.5-0.4-6.7-1.2c-2.2-0.8-4.2-2-6-3.5
		c-1.8-1.6-3.2-3.5-4.3-5.9c-1.1-2.3-1.6-5.1-1.6-8.3V138.9z"/>
	<path id="XMLID_131_" class="st3" d="M324.8,120.7h10.6l16.7,46.5h0.2v-46.5h11.1v77.2H353l-16.9-46.4h-0.2v46.4h-11.1V120.7z"/>
	<path id="XMLID_129_" class="st3" d="M155.3,273.6c0,2.4-0.5,4.7-1.4,6.8c-0.9,2.2-2.2,4.1-3.7,5.7c-1.6,1.6-3.5,2.9-5.6,3.9
		c-2.1,1-4.4,1.5-6.9,1.5c-2.1,0-4.2-0.3-6.4-0.9c-2.2-0.6-4.1-1.6-5.9-3c-1.7-1.4-3.2-3.3-4.3-5.6c-1.1-2.3-1.7-5.2-1.7-8.8v-42.5
		c0-2.5,0.4-4.9,1.3-7c0.9-2.2,2.1-4,3.7-5.6c1.6-1.6,3.5-2.8,5.7-3.7c2.2-0.9,4.6-1.4,7.3-1.4c2.5,0,4.9,0.5,7,1.4
		c2.2,0.9,4,2.2,5.6,3.8c1.6,1.6,2.8,3.6,3.7,5.9c0.9,2.3,1.4,4.8,1.4,7.4v4.3h-11.1V232c0-2.2-0.6-4-1.8-5.6
		c-1.2-1.6-2.9-2.4-5-2.4c-2.7,0-4.6,0.9-5.5,2.5c-0.9,1.7-1.4,3.8-1.4,6.4v39.5c0,2.2,0.5,4.1,1.5,5.6c1,1.5,2.7,2.3,5.3,2.3
		c0.7,0,1.5-0.1,2.3-0.4c0.8-0.3,1.6-0.7,2.3-1.2c0.7-0.6,1.2-1.4,1.7-2.4c0.4-1,0.7-2.3,0.7-3.8v-3.8h11.1V273.6z"/>
	<path id="XMLID_126_" class="st3" d="M163.6,231.8c0-3.1,0.5-5.9,1.6-8.2c1.1-2.4,2.5-4.4,4.3-5.9c1.8-1.6,3.8-2.7,6-3.5
		c2.2-0.8,4.4-1.2,6.7-1.2c2.2,0,4.5,0.4,6.7,1.2c2.2,0.8,4.2,2,6,3.5c1.8,1.6,3.2,3.5,4.3,5.9c1.1,2.4,1.6,5.1,1.6,8.2v40.8
		c0,3.2-0.5,5.9-1.6,8.3c-1.1,2.3-2.5,4.3-4.3,5.9c-1.8,1.6-3.8,2.7-6,3.5c-2.2,0.8-4.4,1.2-6.7,1.2c-2.2,0-4.5-0.4-6.7-1.2
		c-2.2-0.8-4.2-2-6-3.5c-1.8-1.6-3.2-3.5-4.3-5.9c-1.1-2.3-1.6-5.1-1.6-8.3V231.8z M174.7,272.6c0,2.7,0.7,4.6,2.2,5.9
		c1.5,1.3,3.2,1.9,5.3,1.9c2,0,3.8-0.6,5.3-1.9c1.5-1.3,2.2-3.2,2.2-5.9v-40.8c0-2.7-0.7-4.6-2.2-5.9c-1.5-1.3-3.2-1.9-5.3-1.9
		c-2,0-3.8,0.6-5.3,1.9c-1.5,1.3-2.2,3.2-2.2,5.9V272.6z"/>
	<path id="XMLID_124_" class="st3" d="M210.5,213.6h32.9V224h-21.9v23.4h19.1v10.4h-19.1v32.9h-11.1V213.6z"/>
	<path id="XMLID_121_" class="st3" d="M249.9,231.8c0-3.1,0.5-5.9,1.6-8.2c1.1-2.4,2.5-4.4,4.3-5.9c1.8-1.6,3.8-2.7,6-3.5
		c2.2-0.8,4.4-1.2,6.7-1.2c2.2,0,4.5,0.4,6.7,1.2c2.2,0.8,4.2,2,6,3.5c1.8,1.6,3.2,3.5,4.3,5.9c1.1,2.4,1.6,5.1,1.6,8.2v40.8
		c0,3.2-0.5,5.9-1.6,8.3c-1.1,2.3-2.5,4.3-4.3,5.9c-1.8,1.6-3.8,2.7-6,3.5c-2.2,0.8-4.4,1.2-6.7,1.2c-2.2,0-4.5-0.4-6.7-1.2
		c-2.2-0.8-4.2-2-6-3.5c-1.8-1.6-3.2-3.5-4.3-5.9c-1.1-2.3-1.6-5.1-1.6-8.3V231.8z M261,272.6c0,2.7,0.7,4.6,2.2,5.9
		c1.5,1.3,3.2,1.9,5.3,1.9c2,0,3.8-0.6,5.3-1.9c1.5-1.3,2.2-3.2,2.2-5.9v-40.8c0-2.7-0.7-4.6-2.2-5.9c-1.5-1.3-3.2-1.9-5.3-1.9
		c-2,0-3.8,0.6-5.3,1.9c-1.5,1.3-2.2,3.2-2.2,5.9V272.6z"/>
	<path id="XMLID_119_" class="st3" d="M332.5,273.5c0,2.5-0.5,4.9-1.4,7c-0.9,2.2-2.2,4.1-3.8,5.7s-3.5,2.9-5.7,3.8
		c-2.2,0.9-4.5,1.4-6.9,1.4c-2.5,0-4.8-0.5-6.9-1.4c-2.2-0.9-4.1-2.2-5.7-3.8c-1.6-1.6-2.9-3.5-3.8-5.7c-0.9-2.2-1.4-4.5-1.4-7
		v-59.8h11.1v58.7c0,2.7,0.7,4.8,2,6.1c1.3,1.3,2.9,2,4.9,2c2,0,3.6-0.7,4.9-2c1.3-1.3,2-3.3,2-6.1v-58.7h11.1V273.5z"/>
	<path id="XMLID_117_" class="st3" d="M342.5,213.6h10.6l16.7,46.5h0.2v-46.5h11.1v77.2h-10.4l-16.9-46.4h-0.2v46.4h-11.1V213.6z"/>
	<path id="XMLID_59_" class="st3" d="M391,213.6h16.4c6.3,0,11.1,1.8,14.4,5.3c3.3,3.5,5,8.4,5,14.7v36.1c0,7.2-1.8,12.6-5.3,16
		c-3.5,3.4-8.5,5.1-15.1,5.1H391V213.6z M402.1,280.4h5.1c3.1,0,5.3-0.8,6.6-2.3c1.3-1.6,2-4,2-7.3v-37.2c0-3-0.6-5.4-1.8-7
		c-1.2-1.7-3.5-2.5-6.7-2.5h-5.1V280.4z"/>
	<path id="XMLID_56_" class="st3" d="M437.2,213.6h32.9V224h-21.9v22.7h19.1v10.4h-19.1v22.7h21.9v11.1h-32.9V213.6z"/>
	<path id="XMLID_44_" class="st3" d="M477.3,213.6h17.8c13,0,19.5,7.6,19.5,22.7c0,4.5-0.7,8.3-2.1,11.5c-1.4,3.2-3.9,5.8-7.4,7.7
		l11.9,35.2h-11.7L495,257.8h-6.6v32.9h-11.1V213.6z M488.4,248.1h6.3c2,0,3.5-0.3,4.7-0.8c1.2-0.5,2-1.3,2.7-2.3
		c0.6-1,1-2.3,1.2-3.7c0.2-1.5,0.3-3.2,0.3-5.1c0-2-0.1-3.7-0.3-5.1c-0.2-1.5-0.7-2.7-1.4-3.8c-0.7-1-1.6-1.8-2.9-2.3
		c-1.2-0.5-2.9-0.8-4.9-0.8h-5.7V248.1z"/>
	<path id="XMLID_38_" class="st3" d="M559.3,235.8h-11.1v-2.5c0-2.5-0.6-4.7-1.8-6.6c-1.2-1.8-3.2-2.8-6-2.8c-1.5,0-2.8,0.3-3.7,0.9
		c-1,0.6-1.7,1.3-2.3,2.2c-0.5,0.9-0.9,2-1.1,3.1c-0.2,1.2-0.3,2.4-0.3,3.7c0,1.5,0.1,2.8,0.2,3.8c0.1,1,0.4,2,0.8,2.7
		c0.4,0.8,1.1,1.4,1.9,2c0.8,0.6,2,1.2,3.4,1.7l8.5,3.4c2.5,0.9,4.4,2,6,3.3c1.5,1.3,2.7,2.7,3.5,4.4c0.8,1.7,1.4,3.6,1.7,5.9
		c0.3,2.2,0.4,4.7,0.4,7.5c0,3.3-0.3,6.3-1,9.1c-0.7,2.8-1.7,5.2-3.2,7.2c-1.5,2-3.5,3.6-5.9,4.7c-2.5,1.2-5.5,1.7-9,1.7
		c-2.7,0-5.2-0.5-7.5-1.4c-2.3-0.9-4.3-2.2-6-3.8c-1.7-1.6-3-3.6-4-5.8c-1-2.2-1.5-4.7-1.5-7.3V269h11.1v3.5c0,2,0.6,3.8,1.8,5.5
		c1.2,1.6,3.2,2.4,6,2.4c1.9,0,3.3-0.3,4.4-0.8c1-0.5,1.8-1.3,2.4-2.3c0.5-1,0.9-2.2,1-3.6c0.1-1.4,0.2-3,0.2-4.8c0-2-0.1-3.7-0.2-5
		c-0.1-1.3-0.5-2.3-0.9-3.1c-0.5-0.8-1.1-1.4-2-2c-0.8-0.5-1.9-1-3.3-1.6l-7.9-3.3c-4.8-2-8-4.5-9.6-7.7c-1.6-3.2-2.4-7.2-2.4-12.1
		c0-2.9,0.4-5.6,1.2-8.2c0.8-2.6,2-4.8,3.5-6.7c1.6-1.9,3.5-3.4,5.9-4.5c2.4-1.1,5.2-1.7,8.3-1.7c2.7,0,5.3,0.5,7.5,1.5
		c2.3,1,4.2,2.3,5.9,4c1.6,1.7,2.9,3.5,3.7,5.6c0.9,2.1,1.3,4.2,1.3,6.3V235.8z"/>
</g>
</svg>
