<?xml version="1.0" encoding="utf-8"?>
<!-- Generator: Adobe Illustrator 19.2.1, SVG Export Plug-In . SVG Version: 6.00 Build 0)  -->
<svg version="1.1" id="Layer_1" xmlns="http://www.w3.org/2000/svg" xmlns:xlink="http://www.w3.org/1999/xlink" x="0px" y="0px"
	 viewBox="0 0 238.1 188.5" style="enable-background:new 0 0 238.1 188.5;" xml:space="preserve">
<style type="text/css">
	.st0{fill:none;stroke:#5F3A6E;stroke-width:4;stroke-linecap:round;stroke-miterlimit:10;}
</style>
<g>
	<g>
		<line class="st0" x1="33.1" y1="2.3" x2="108.8" y2="67.5"/>
		<line class="st0" x1="33.1" y1="14.8" x2="101.1" y2="73.4"/>
		<line class="st0" x1="33.5" y1="27.6" x2="94.6" y2="80.3"/>
		<line class="st0" x1="33" y1="39.7" x2="87.2" y2="86.4"/>
	</g>
	<g>
		<line class="st0" x1="204.5" y1="186.4" x2="128.9" y2="121.2"/>
		<line class="st0" x1="204.5" y1="173.9" x2="136.5" y2="115.3"/>
		<line class="st0" x1="204.1" y1="161" x2="143.1" y2="108.4"/>
		<g>
			<line class="st0" x1="204.6" y1="148.9" x2="150.4" y2="102.2"/>
		</g>
	</g>
	<g>
		<line class="st0" x1="2" y1="2" x2="2" y2="186.5"/>
		<line class="st0" x1="12.3" y1="2" x2="12.3" y2="186.5"/>
		<line class="st0" x1="22.5" y1="2" x2="22.5" y2="186.5"/>
		<line class="st0" x1="32.8" y1="2" x2="32.8" y2="186.5"/>
	</g>
	<g>
		<line class="st0" x1="205.3" y1="2" x2="205.3" y2="186.5"/>
		<line class="st0" x1="215.6" y1="2" x2="215.6" y2="186.5"/>
		<line class="st0" x1="225.9" y1="2" x2="225.9" y2="186.5"/>
		<line class="st0" x1="236.1" y1="2" x2="236.1" y2="186.5"/>
	</g>
	<g>
		<line class="st0" x1="205.1" y1="2.6" x2="34.4" y2="148.5"/>
		<line class="st0" x1="205.1" y1="13.8" x2="33.2" y2="162"/>
		<line class="st0" x1="203.6" y1="27.6" x2="33.7" y2="174.1"/>
		<line class="st0" x1="203.7" y1="40" x2="33.1" y2="185.8"/>
	</g>
</g>
</svg>
