<?xml version="1.0" encoding="utf-8"?>
<!-- Generator: Adobe Illustrator 19.2.1, SVG Export Plug-In . SVG Version: 6.00 Build 0)  -->
<svg version="1.1" id="Layer_1" xmlns="http://www.w3.org/2000/svg" xmlns:xlink="http://www.w3.org/1999/xlink" x="0px" y="0px"
	 viewBox="0 0 1231.1 979.4" style="enable-background:new 0 0 1231.1 979.4;" xml:space="preserve">
<style type="text/css">
	<!-- .st0{opacity:2.500000e-02;} -->
	.st1{fill:none;stroke:#34356B;stroke-width:45;stroke-linecap:round;stroke-miterlimit:10;}
	.st2{fill:none;stroke:#34356B;stroke-width:42;stroke-linecap:round;stroke-miterlimit:10;}
</style>
<g class="st0">
	<g>
		<line class="st1" x1="180.2" y1="23.9" x2="563.4" y2="354.2"/>
		<line class="st1" x1="180.2" y1="87.3" x2="524.8" y2="384.3"/>
		<line class="st1" x1="182.2" y1="152.4" x2="491.6" y2="419.1"/>
		<line class="st1" x1="179.7" y1="213.7" x2="454.2" y2="450.2"/>
	</g>
	<g>
		<line class="st1" x1="1048.5" y1="956.7" x2="665.3" y2="626.4"/>
		<line class="st1" x1="1048.5" y1="893.3" x2="703.9" y2="596.3"/>
		<line class="st1" x1="1046.4" y1="828.2" x2="737.1" y2="561.5"/>
		<g>
			<line class="st1" x1="1048.9" y1="766.9" x2="774.4" y2="530.3"/>
		</g>
	</g>
	<g>
		<line class="st1" x1="22.5" y1="22.5" x2="22.5" y2="956.9"/>
		<line class="st1" x1="74.5" y1="22.5" x2="74.5" y2="956.9"/>
		<line class="st1" x1="126.5" y1="22.5" x2="126.5" y2="956.9"/>
		<line class="st1" x1="178.5" y1="22.5" x2="178.5" y2="956.9"/>
	</g>
	<g>
		<line class="st1" x1="1052.6" y1="22.5" x2="1052.6" y2="956.9"/>
		<line class="st1" x1="1104.6" y1="22.5" x2="1104.6" y2="956.9"/>
		<line class="st1" x1="1156.6" y1="22.5" x2="1156.6" y2="956.9"/>
		<line class="st1" x1="1208.6" y1="22.5" x2="1208.6" y2="956.9"/>
	</g>
	<g>
		<line class="st2" x1="1051.3" y1="21.7" x2="186.5" y2="760.6"/>
		<line class="st2" x1="1051.3" y1="80.5" x2="180.6" y2="830.9"/>
		<line class="st2" x1="1043.6" y1="150.4" x2="182.9" y2="892.4"/>
		<line class="st2" x1="1044.4" y1="215.1" x2="179.8" y2="953.9"/>
	</g>
</g>
</svg>
