<?xml version="1.0" encoding="utf-8"?>
<!-- Generator: Adobe Illustrator 19.2.1, SVG Export Plug-In . SVG Version: 6.00 Build 0)  -->
<!DOCTYPE svg PUBLIC "-//W3C//DTD SVG 1.1//EN" "http://www.w3.org/Graphics/SVG/1.1/DTD/svg11.dtd">
<svg version="1.1" id="Layer_1" xmlns="http://www.w3.org/2000/svg" xmlns:xlink="http://www.w3.org/1999/xlink" x="0px" y="0px"
	 viewBox="0 0 422 192" style="enable-background:new 0 0 422 192;" xml:space="preserve">
<style type="text/css">
	.st0{fill:#603B6F;}
	.st1{fill:#FFFFFF;}
</style>
<g>
	<g>
		<g>
			<g>
				<path class="st0" d="M205.2,71.3c-0.5,0-0.9-0.2-1.3-0.5L128,5.9c-0.8-0.7-0.9-2-0.2-2.8c0.7-0.8,2-0.9,2.8-0.2l75.9,64.9
					c0.8,0.7,0.9,2,0.2,2.8C206.3,71.1,205.7,71.3,205.2,71.3z"/>
			</g>
			<g>
				<path class="st0" d="M197.6,77.3c-0.5,0-0.9-0.2-1.3-0.5L128,18.4c-0.8-0.7-0.9-2-0.2-2.8c0.7-0.8,2-0.9,2.8-0.2l68.3,58.4
					c0.8,0.7,0.9,2,0.2,2.8C198.7,77,198.1,77.3,197.6,77.3z"/>
			</g>
			<g>
				<path class="st0" d="M191,84.1c-0.5,0-0.9-0.2-1.3-0.5l-61.3-52.4c-0.8-0.7-0.9-2-0.2-2.8c0.7-0.8,2-0.9,2.8-0.2l61.3,52.4
					c0.8,0.7,0.9,2,0.2,2.8C192.2,83.9,191.6,84.1,191,84.1z"/>
			</g>
			<g>
				<path class="st0" d="M183.7,90.3c-0.5,0-0.9-0.2-1.3-0.5L128,43.4c-0.8-0.7-0.9-2-0.2-2.8c0.7-0.8,2-0.9,2.8-0.2L185,86.8
					c0.8,0.7,0.9,2,0.2,2.8C184.8,90.1,184.3,90.3,183.7,90.3z"/>
			</g>
		</g>
		<g>
			<g>
				<path class="st0" d="M301.4,189.8c-0.5,0-0.9-0.2-1.3-0.5l-75.9-64.9c-0.8-0.7-0.9-2-0.2-2.8c0.7-0.8,2-0.9,2.8-0.2l75.9,64.9
					c0.8,0.7,0.9,2,0.2,2.8C302.5,189.6,302,189.8,301.4,189.8z"/>
			</g>
			<g>
				<path class="st0" d="M301.3,177.3c-0.5,0-0.9-0.2-1.3-0.5l-68.3-58.4c-0.8-0.7-0.9-2-0.2-2.8c0.7-0.8,2-0.9,2.8-0.2l68.3,58.4
					c0.8,0.7,0.9,2,0.2,2.8C302.5,177.1,301.9,177.3,301.3,177.3z"/>
			</g>
			<g>
				<path class="st0" d="M300.9,164.5c-0.5,0-0.9-0.2-1.3-0.5l-61.3-52.4c-0.8-0.7-0.9-2-0.2-2.8c0.7-0.8,2-0.9,2.8-0.2l61.3,52.4
					c0.8,0.7,0.9,2,0.2,2.8C302,164.2,301.5,164.5,300.9,164.5z"/>
			</g>
			<g>
				<g>
					<path class="st0" d="M301.3,152.4c-0.5,0-0.9-0.2-1.3-0.5l-54.4-46.5c-0.8-0.7-0.9-2-0.2-2.8c0.7-0.8,2-0.9,2.8-0.2l54.4,46.5
						c0.8,0.7,0.9,2,0.2,2.8C302.5,152.2,301.9,152.4,301.3,152.4z"/>
				</g>
			</g>
		</g>
		<g>
			<g>
				<path class="st0" d="M98.9,190.7c-1.1,0-2-0.9-2-2L96.2,4.2c0-1.1,0.9-2,2-2c1.1,0,2,0.9,2,2l0.7,184.5
					C100.9,189.8,100,190.7,98.9,190.7C98.9,190.7,98.9,190.7,98.9,190.7z"/>
			</g>
			<g>
				<path class="st0" d="M109.1,190.6c-1.1,0-2-0.9-2-2L106.4,4.2c0-1.1,0.9-2,2-2c1.2,0,2,0.9,2,2l0.7,184.5
					C111.1,189.7,110.2,190.6,109.1,190.6C109.1,190.6,109.1,190.6,109.1,190.6z"/>
			</g>
			<g>
				<path class="st0" d="M119.4,190.6c-1.1,0-2-0.9-2-2L116.7,4.2c0-1.1,0.9-2,2-2c1.1,0,2,0.9,2,2l0.7,184.5
					C121.4,189.7,120.5,190.6,119.4,190.6C119.4,190.6,119.4,190.6,119.4,190.6z"/>
			</g>
			<g>
				<path class="st0" d="M129.7,190.6c-1.1,0-2-0.9-2-2L126.9,4.1c0-1.1,0.9-2,2-2c1.1,0,2,0.9,2,2l0.7,184.5
					C131.7,189.7,130.8,190.6,129.7,190.6C129.7,190.6,129.7,190.6,129.7,190.6z"/>
			</g>
		</g>
		<g>
			<g>
				<path class="st0" d="M302.2,189.9c-1.1,0-2-0.9-2-2L299.5,3.4c0-1.1,0.9-2,2-2c1.1,0,2,0.9,2,2l0.7,184.5
					C304.2,189,303.3,189.9,302.2,189.9C302.2,189.9,302.2,189.9,302.2,189.9z"/>
			</g>
			<g>
				<path class="st0" d="M312.5,189.9c-1.1,0-2-0.9-2-2L309.8,3.4c0-1.1,0.9-2,2-2c0,0,0,0,0,0c1.1,0,2,0.9,2,2l0.7,184.5
					C314.5,188.9,313.6,189.8,312.5,189.9C312.5,189.9,312.5,189.9,312.5,189.9z"/>
			</g>
			<g>
				<path class="st0" d="M322.7,189.8c-1.1,0-2-0.9-2-2L320,3.4c0-1.1,0.9-2,2-2c0,0,0,0,0,0c1.1,0,2,0.9,2,2l0.7,184.5
					C324.7,188.9,323.8,189.8,322.7,189.8C322.7,189.8,322.7,189.8,322.7,189.8z"/>
			</g>
			<g>
				<path class="st0" d="M333,189.8c-1.1,0-2-0.9-2-2L330.3,3.3c0-1.1,0.9-2,2-2c0,0,0,0,0,0c1.1,0,2,0.9,2,2l0.7,184.5
					C335,188.9,334.1,189.8,333,189.8C333,189.8,333,189.8,333,189.8z"/>
			</g>
		</g>
		<g>
			<g>
				<path class="st0" d="M131.1,152.6c-0.6,0-1.1-0.2-1.5-0.7c-0.7-0.8-0.6-2.1,0.2-2.8L299.9,2.5c0.8-0.7,2.1-0.6,2.8,0.2
					c0.7,0.8,0.6,2.1-0.2,2.8L132.4,152.1C132,152.4,131.6,152.6,131.1,152.6z"/>
			</g>
			<g>
				<path class="st0" d="M130,166.1c-0.6,0-1.1-0.2-1.5-0.7c-0.7-0.8-0.6-2.1,0.2-2.8L300,13.8c0.8-0.7,2.1-0.6,2.8,0.2
					c0.7,0.8,0.6,2.1-0.2,2.8L131.3,165.6C130.9,165.9,130.5,166.1,130,166.1z"/>
			</g>
			<g>
				<path class="st0" d="M130.5,178.2c-0.6,0-1.1-0.2-1.5-0.7c-0.7-0.8-0.6-2.1,0.2-2.8L298.5,27.6c0.8-0.7,2.1-0.6,2.8,0.2
					s0.6,2.1-0.2,2.8L131.8,177.7C131.4,178,130.9,178.2,130.5,178.2z"/>
			</g>
			<g>
				<path class="st0" d="M129.9,190c-0.6,0-1.1-0.2-1.5-0.7c-0.7-0.8-0.6-2.1,0.2-2.8L298.7,39.9c0.8-0.7,2.1-0.6,2.8,0.2
					c0.7,0.8,0.6,2.1-0.2,2.8L131.2,189.5C130.9,189.8,130.4,190,129.9,190z"/>
			</g>
		</g>
	</g>
	<g>
		<path class="st1" d="M22.9,109.5l-8-13.4l-6.3,0l0.1,13.4l-6.3,0L2.3,73.7L18,73.6c7.1,0,11.8,4.5,11.8,11.2
			c0,6.3-4.2,9.9-8.5,10.6l8.9,14L22.9,109.5z M23.4,84.8c0-3.4-2.6-5.6-6.2-5.6l-8.7,0l0,11.4l8.7,0C20.8,90.6,23.4,88.3,23.4,84.8
			z"/>
		<path class="st1" d="M47,109.4l-0.1-35.9l24.6-0.1l0,5.5L53.1,79l0,9.2l17.9-0.1l0,5.5l-17.9,0.1l0,10l18.3-0.1l0,5.5L47,109.4z"
			/>
		<path class="st1" d="M88.7,109.2l-0.1-35.9l13.3-0.1c11.2,0,18.8,7.3,18.8,17.8c0,10.6-7.5,18-18.6,18L88.7,109.2z M114.3,91.2
			c0-6.9-4.3-12.3-12.3-12.3l-7.1,0l0.1,24.8l7,0C109.8,103.6,114.3,98,114.3,91.2z"/>
		<path class="st1" d="M137.7,109l-0.1-35.9l6.3,0l0.1,35.9L137.7,109z"/>
		<path class="st1" d="M160,103.9l3.5-4.9c2.4,2.6,6.4,5,11.4,5c5.2,0,7.1-2.6,7.1-5c0-7.5-20.9-2.8-20.9-15.9c0-6,5.1-10.6,13-10.6
			c5.5,0,10.1,1.8,13.4,5l-3.5,4.7c-2.9-2.8-6.7-4.1-10.4-4.1c-3.7,0-6,1.9-6,4.5c0,6.7,20.9,2.5,20.9,15.8c0,6-4.2,11.1-13.8,11.2
			C168,109.6,163.2,107.2,160,103.9z"/>
		<path class="st1" d="M203.4,90.9c0-11.1,8.2-18.6,18.7-18.6c7.2,0,11.7,3.7,14.4,8l-5.3,2.8c-1.7-3-5.2-5.2-9.1-5.2
			c-7.1,0-12.3,5.4-12.3,13c0,7.5,5.3,12.9,12.4,12.9c3.8,0,7.3-2.3,9-5.2l5.4,2.7c-2.7,4.3-7.2,8.1-14.4,8.2
			C211.7,109.4,203.4,101.9,203.4,90.9z"/>
		<path class="st1" d="M250.8,90.7c0-10.7,7.5-18.6,18.3-18.6c10.7,0,18.4,7.8,18.4,18.5s-7.6,18.6-18.3,18.6
			C258.5,109.2,250.9,101.4,250.8,90.7z M281,90.6c0-7.4-4.7-12.9-11.9-12.9c-7.3,0-11.9,5.6-11.8,13c0,7.4,4.7,12.9,11.9,12.9
			C276.4,103.5,281.1,97.9,281,90.6z"/>
		<path class="st1" d="M313.6,108.3l-14.2-35.8l7.1,0l11,28.9l10.7-29l7.2,0l-13.9,35.9L313.6,108.3z"/>
		<path class="st1" d="M350.2,108.2L350,72.3l24.6-0.1l0,5.5l-18.3,0.1l0,9.2l17.9-0.1l0,5.5l-17.9,0.1l0,10l18.3-0.1l0,5.5
			L350.2,108.2z"/>
		<path class="st1" d="M412.4,108l-8-13.4l-6.3,0l0.1,13.4l-6.3,0l-0.1-35.9l15.8-0.1c7.1,0,11.8,4.5,11.8,11.2
			c0,6.3-4.2,9.9-8.5,10.6l8.9,14L412.4,108z M412.9,83.3c0-3.4-2.6-5.6-6.2-5.6l-8.7,0l0,11.4l8.7,0
			C410.4,89,412.9,86.8,412.9,83.3z"/>
	</g>
	<g>
		<path class="st1" d="M121.8,151.9l-4.5-7.6l-3.6,0l0,7.6l-3.6,0l-0.1-20.5l9,0c4.1,0,6.7,2.6,6.8,6.4c0,3.6-2.4,5.6-4.9,6l5.1,8
			L121.8,151.9z M122.1,137.8c0-2-1.5-3.2-3.5-3.2l-4.9,0l0,6.5l4.9,0C120.6,141.1,122.1,139.8,122.1,137.8z"/>
		<path class="st1" d="M135.6,151.9l-0.1-20.5l14-0.1l0,3.2l-10.4,0l0,5.3l10.2,0l0,3.2l-10.2,0l0,5.7l10.4,0l0,3.2L135.6,151.9z"/>
		<path class="st1" d="M159.4,151.8l-0.1-20.5l3.6,0l0.1,20.5L159.4,151.8z"/>
		<path class="st1" d="M191.2,151.6l-0.1-15.8l-6.2,15.8l-1.5,0l-6.4-15.8l0.1,15.8l-3.6,0l-0.1-20.5l5.1,0l5.6,14l5.5-14.1l5.1,0
			l0.1,20.5L191.2,151.6z"/>
		<path class="st1" d="M219.7,151.5l-1.5-4l-9.4,0l-1.5,4l-4.1,0l8-20.5l4.5,0l8.1,20.5L219.7,151.5z M213.4,134.7l-3.6,9.8l7.4,0
			L213.4,134.7z"/>
		<path class="st1" d="M230.2,141.3c0-6.5,4.8-10.6,10.7-10.6c4,0,6.6,1.9,8.2,4.2l-2.9,1.7c-1.1-1.5-3.1-2.7-5.3-2.7
			c-4.1,0-7.1,3.1-7,7.4c0,4.3,3,7.4,7.1,7.4c2.1,0,3.9-1,4.8-1.9l0-3.2l-6.1,0l0-3.2l9.7,0l0,7.6c-2,2.2-4.9,3.8-8.4,3.8
			C235,151.9,230.2,147.7,230.2,141.3z"/>
		<path class="st1" d="M259.3,151.4l-0.1-20.5l3.6,0l0.1,20.5L259.3,151.4z"/>
		<path class="st1" d="M287.6,151.3l-10.7-14.6l0.1,14.7l-3.6,0l-0.1-20.5l3.7,0l10.5,14.1l-0.1-14.2l3.6,0l0.1,20.5L287.6,151.3z"
			/>
		<path class="st1" d="M301.6,151.2l-0.1-20.5l14-0.1l0,3.2l-10.4,0l0,5.3l10.2,0l0,3.2l-10.2,0l0,5.7l10.4,0l0,3.2L301.6,151.2z"/>
	</g>
</g>
</svg>
