<?xml version="1.0" encoding="utf-8"?>
<!-- Generator: Adobe Illustrator 19.2.1, SVG Export Plug-In . SVG Version: 6.00 Build 0)  -->
<svg version="1.1" id="Layer_1" xmlns="http://www.w3.org/2000/svg" xmlns:xlink="http://www.w3.org/1999/xlink" x="0px" y="0px"
	 viewBox="0 0 146.3 182.8" style="enable-background:new 0 0 146.3 182.8;" xml:space="preserve">
<style type="text/css">
	.st0{fill:#FFFFFF;}
	.st1{fill:none;}
</style>
<g>
	<g>
		<path class="st0" d="M73.1,36.6C53,36.6,36.6,53,36.6,73.1c0,20.2,16.4,36.6,36.6,36.6c20.2,0,36.6-16.4,36.6-36.6
			C109.7,53,93.3,36.6,73.1,36.6z M73.1,97.5c-13.5,0-24.4-10.9-24.4-24.4s10.9-24.4,24.4-24.4s24.4,10.9,24.4,24.4
			S86.6,97.5,73.1,97.5z"/>
		<path class="st0" d="M140.5,44.7c-3.7-8.7-9-16.5-15.7-23.2s-14.5-12-23.2-15.7C92.6,1.9,83,0,73.1,0S53.7,1.9,44.7,5.8
			c-8.7,3.7-16.5,9-23.2,15.7S9.4,36,5.8,44.7C1.9,53.7,0,63.3,0,73.1c0,16,5.1,31.1,14.6,43.9c0.1,0.1,0.1,0.2,0.2,0.3l48.7,60.9
			c2.3,2.9,5.8,4.6,9.5,4.6s7.2-1.7,9.5-4.6l48.7-60.9c0.1-0.1,0.2-0.2,0.2-0.3c9.6-12.7,14.6-27.9,14.6-43.9
			C146.3,63.3,144.3,53.7,140.5,44.7z M121.9,109.7l-48.7,60.9l-48.7-60.9c-7.6-10.2-12.2-22.8-12.2-36.6
			c0-33.6,27.3-60.9,60.9-60.9c33.6,0,60.9,27.3,60.9,60.9C134.1,86.9,129.5,99.5,121.9,109.7z"/>
	</g>
</g>
<path class="st0" d="M175.3-57.4v10.9c0,0.8,0.7,1.5,1.5,1.5h13.1c0.8,0,1.5-0.7,1.5-1.5v-10.9H175.3z M179.3-46.1h-2.9v-2.9h2.9
	V-46.1z M179.3-49.8h-2.9v-2.9h2.9V-49.8z M179.3-53.4h-2.9v-2.9h2.9V-53.4z M182.9-46.1H180v-2.9h2.9V-46.1z M182.9-49.8H180v-2.9
	h2.9V-49.8z M182.9-53.4H180v-2.9h2.9V-53.4z M186.6-46.1h-2.9v-2.9h2.9V-46.1z M186.6-49.8h-2.9v-2.9h2.9V-49.8z M186.6-53.4h-2.9
	v-2.9h2.9V-53.4z M190.2-46.1h-2.9v-2.9h2.9V-46.1z M190.2-49.8h-2.9v-2.9h2.9V-49.8z M190.2-53.4h-2.9v-2.9h2.9V-53.4z"/>
<path class="st0" d="M189.8-61.1h-2.4v-1.6c0-0.3-0.2-0.5-0.5-0.5c-0.3,0-0.5,0.2-0.5,0.5v1.6h-6.2v-1.6c0-0.3-0.2-0.5-0.5-0.5
	c-0.3,0-0.5,0.2-0.5,0.5v1.6h-2.4c-0.8,0-1.5,0.7-1.5,1.5v1.4h16v-1.4C191.3-60.4,190.6-61.1,189.8-61.1z"/>
<path class="st0" d="M179.6-58.5c-0.6,0-1.1-0.5-1.1-1.1c0-0.4,0.2-0.8,0.5-0.9v0.9c0,0.3,0.2,0.5,0.5,0.5c0.3,0,0.5-0.2,0.5-0.5
	v-0.9c0.3,0.2,0.5,0.5,0.5,0.9C180.7-59,180.2-58.5,179.6-58.5z"/>
<path class="st0" d="M186.4-60.6v0.9c0,0.3,0.2,0.5,0.5,0.5c0.3,0,0.5-0.2,0.5-0.5v-0.9c0.3,0.2,0.5,0.5,0.5,0.9
	c0,0.6-0.5,1.1-1.1,1.1c-0.6,0-1.1-0.5-1.1-1.1"/>
<rect x="175.3" y="-63.3" class="st1" width="16" height="18.2"/>
</svg>
