<?xml version="1.0" encoding="utf-8"?>
<!-- Generator: Adobe Illustrator 19.2.0, SVG Export Plug-In . SVG Version: 6.00 Build 0)  -->
<svg version="1.1" id="Layer_1" xmlns="http://www.w3.org/2000/svg" xmlns:xlink="http://www.w3.org/1999/xlink" x="0px" y="0px"
	 viewBox="0 0 490 104.2" style="enable-background:new 0 0 490 104.2;" xml:space="preserve">
<style type="text/css">
	.st0{fill:#003767;}
</style>
<path class="st0" d="M131.3,95.9l0-20.3v-9.1c0-7.4-0.5-14.5-6.8-20.4c-4.2-4.1-8.6-5.8-14.5-5.8c-5.7,0-14.3,2.9-19.7,9.1V1.6H72.6
	v4.2c0.1,0,5.9-0.9,5.9,5.2l0,84.9c0,2.7-7.9,3.9-8,4v3.1h7.6h0.1h12.5h0.1h7.6v-3.1c-0.1,0-8-0.9-8-3.9V59.3c0.3-2,1.5-4.1,2.6-5.5
	c4.4-5.1,10-5.8,12.9-5.8c3.4,0,6.3,1.2,9.1,3.9c3.8,3.6,4.8,8.8,4.8,17.2v27c0,2.7-8,3.9-8,4v3.1h7.6h0.1h12.1h0.1h7.7v-3.1
	C139.3,99.9,131.3,98.9,131.3,95.9z"/>
<path class="st0" d="M274,95.9V41.9c0-0.1-0.1-0.1-0.2-0.2h-17.7v4.2c0.1,0,5.9-0.6,5.9,5.6v44.5c0,2.7-7.9,3.9-8,4v3.1h7.7h0.1
	h12.5h0.1h7.6v-3.1C281.9,99.9,274,98.9,274,95.9z"/>
<circle class="st0" cx="266.9" cy="22.5" r="7.1"/>
<path class="st0" d="M346.5,91.6c-0.5-0.6-0.8-2.3-1-5V1.6h-17.8v4.2c0.1,0,5.6-0.6,5.9,5.2v31.4c-4.6-1.3-9.6-2-14.8-2
	c-8.5,0-16.1,3.2-21.6,9.1C290.6,56,287,64.8,287,74.1c0,0-0.3,30.2,26.3,30.2c7.4,0,17-4,21.6-8.2l4.1,7l15.4-4.5v-2.9
	C347.9,95.6,346.5,91.6,346.5,91.6z M333.5,84.9c0,1.5-0.1,2.6-0.8,4.7c-1.4,3.6-7.5,7.6-15.1,7.5C306.7,97.1,299,86.9,299,70.5
	c0-7.8,1.8-14.7,6.1-19.3c4-4.1,9.1-5,12.6-5c9.3,0,13.1,4.7,14.5,7.5c1.2,2.2,1.2,4.8,1.2,6.7V84.9z"/>
<path class="st0" d="M407.7,93.4c-0.4-0.6-0.8-2.2-1-4.6l-0.1-3.7V55.4c0-4.2-0.2-7.4-3.3-10.5c0,0-3.1-4.6-19-4.6
	c-6.8,0.3-15.5,3.3-19,8.7c-2.8,4.4-1.4,7.9,1,10.1c1.2,1,2.8,1.7,4.5,1.7c3.9,0,7-3.1,7-7c0-1.6-0.5-3-1.4-4.2
	c0.5-0.9,3.9-6.6,13.4-5c8,1.4,5.5,19.2,5.5,19.2c-3.5,1.1-28.9,9.2-32.7,19.5c-5,13.6,4.3,18.5,4.4,18.5c2.7,1.5,5.7,2.3,8.8,2.3
	c9.9,0,18.7-7.5,20.6-9.3c1.4,5.6,5.1,8.6,10.3,8.7v0l0.1,0c0.1,0,0.1,0,0.1,0v-0.1l8.6-3.3v-2.9C409.1,97.4,407.7,93.4,407.7,93.4z
	 M395.2,88.3c0,3.4-7.1,6-11.3,7.1c-1,0.3-2,0.4-3,0.4c-4.8,0-8.5-3.3-8.5-7.7c0-8.3,9.7-12.3,16.8-15.3c2.4-1,4.5-1.9,6-2.8V88.3z"
	/>
<path class="st0" d="M238.9,39.9c-6.5,0-14,7.1-17.9,12.7l-1.8-10.9h-15v4.2c0.1,0,5.9-0.6,5.9,5.6v44.5c0,2.7-7.9,3.9-8,4v3.1h7.6
	h0.1h12.5h0.1h7.6v-3.1c-0.1,0-8-0.9-8-3.9V61.7c0.1-0.6,0.6-2.8,1.4-4.2c2.2-4.1,8.1-7.9,10-6.5c1.2,2.3,3.6,3.9,6.4,3.9
	c4,0,7.3-3.3,7.3-7.3c0-0.8-0.1-1.6-0.4-2.4C245.9,42.4,243.3,39.9,238.9,39.9z"/>
<path class="st0" d="M39.7,44.7C23.2,34.2,19.3,29.7,18,21.9c-1.7-10,6.7-17.7,17.5-17.7C39,4.2,53.6,5.5,54,25.4h4V4.8
	C51.5,2.4,42.3,0,33.2,0C17.3,0,4.3,9.2,4.3,26.5c0,13.7,13.4,21.3,24.9,28.1c17.7,11.2,20.9,16.3,21,24.7
	c0,12.6-9.5,19.7-20.3,19.7c-4.8,0-9.1-1.5-12.4-4.2c-1.3-1.5,0.6-3,0.6-3c2-2.1,3.1-4.9,2.9-8C20.6,78,15.5,73.6,9.8,74
	C4,74.4-0.4,79.5,0,85.3c0.1,1.7,0.6,3.3,1.4,4.5c5.8,9.2,16.9,14.5,28.5,14.5c17.1,0,33.3-10.8,33.3-29.3
	C63.2,60.2,52,52,39.7,44.7z"/>
<path class="st0" d="M482,95.9l0-19.9v-9.1c0-7.4-0.9-14.5-7.2-20.4c-4.2-4.1-8.6-6.2-14.5-6.2c-5.7,0-14.2,3.2-19.7,9.5l-1.5-8.2
	h-16.2v4.2c0.1,0,5.9-0.7,5.9,5.8l0,44.3c0,2.7-8,3.9-8,4v3.1h7.6h0.1H441h0.1h7.6v-3.1c-0.1,0-8-0.9-8-3.9V59.6
	c0.3-2,1.5-4.1,2.6-5.5c4.4-5.1,10-5.8,12.9-5.8c3.4,0,6.3,1.2,9.1,3.9c3.8,3.6,4.8,8.8,4.8,17.2v26.6c0,2.7-7.9,3.9-8,4v3.1h7.6
	h0.1h12.5h0.1h7.6v-3.1C490,99.9,482,98.9,482,95.9z"/>
<path class="st0" d="M192.6,85.1l-0.3,0.5c-2.4,4.7-9.1,9.4-17.3,9.4c-11.3,0-19.3-10.3-19.3-24c0-2.9,0.1-5.1,0.3-6.4h38.5
	c0-23.6-19.3-24.2-22.7-24.2c-3.4,0-12,0.9-18.7,7.7c-7.9,7.9-9.4,17.8-9.4,23c0,10.4,1.7,15.7,6.6,22.8c6.2,9,16.9,10.3,22.8,10.3
	c11.8,0,19.8-8.5,23.1-15.8c0.1-0.3,0.3-0.6,0.3-0.9l0.1-0.4l-3.8-1.8L192.6,85.1z M171.3,45.6c9.2,0,12.2,9.6,12.2,12.2l0,1.5
	h-26.5C159.4,50.5,164.4,45.6,171.3,45.6z"/>
</svg>
