<svg id="Layer_1" data-name="Layer 1" xmlns="http://www.w3.org/2000/svg" viewBox="0 0 34.33 34.33"><defs><style>.cls-1{fill:none;stroke:#414042;stroke-miterlimit:10;}.cls-2{fill:#414042;}</style></defs><title>sm_behance</title><circle class="cls-1" cx="17.17" cy="17.17" r="16.67"/><circle class="cls-1" cx="17.17" cy="17.17" r="16.67"/><path class="cls-2" d="M3573.51,2833.76h-4.05v-1h4.05v1Zm-6.75,3.83a3.09,3.09,0,0,1,.16,2.92,2.55,2.55,0,0,1-.79.91,3.48,3.48,0,0,1-1.14.52,5.08,5.08,0,0,1-1.31.17h-4.85v-10h4.72a6.15,6.15,0,0,1,1.3.13,2.84,2.84,0,0,1,1,.41,1.94,1.94,0,0,1,.65.76,2.68,2.68,0,0,1,.23,1.17,2.2,2.2,0,0,1-.34,1.26,2.5,2.5,0,0,1-1,.83A2.38,2.38,0,0,1,3566.76,2837.6Zm-5.72-1.45h2.23a1.59,1.59,0,0,0,1-.28,1.05,1.05,0,0,0,.38-0.91,1.19,1.19,0,0,0-.12-0.57,0.91,0.91,0,0,0-.34-0.35,1.37,1.37,0,0,0-.48-0.18,3,3,0,0,0-.57,0H3561v2.34h0Zm4,2.93a1.3,1.3,0,0,0-.43-1.1,1.86,1.86,0,0,0-1.15-.33H3561v2.75h2.35a2.8,2.8,0,0,0,.62-0.06,1.45,1.45,0,0,0,.52-0.21,1.05,1.05,0,0,0,.36-0.4A1.39,1.39,0,0,0,3565,2839.08Zm10.07-.12h-5.23a2,2,0,0,0,.49,1.41,2,2,0,0,0,2.33.13,1.28,1.28,0,0,0,.53-0.64H3575a3.32,3.32,0,0,1-1.29,1.87,3.76,3.76,0,0,1-2.1.56,4.15,4.15,0,0,1-1.54-.27,3.29,3.29,0,0,1-1.17-.78,3.57,3.57,0,0,1-.74-1.21,4.43,4.43,0,0,1-.26-1.54,4.26,4.26,0,0,1,.27-1.52,3.51,3.51,0,0,1,1.93-2,3.76,3.76,0,0,1,1.51-.3,3.43,3.43,0,0,1,1.61.36,3.2,3.2,0,0,1,1.13,1,3.93,3.93,0,0,1,.64,1.37A5.13,5.13,0,0,1,3575.09,2839Zm-2-1.25a1.94,1.94,0,0,0-.46-1.15,1.49,1.49,0,0,0-1.13-.4,1.71,1.71,0,0,0-.79.16,1.59,1.59,0,0,0-.5.4,1.43,1.43,0,0,0-.27.51,2.29,2.29,0,0,0-.09.48h3.24Z" transform="translate(-3549.8 -2820.03)"/></svg>