<svg id="Layer_1" data-name="Layer 1" xmlns="http://www.w3.org/2000/svg" viewBox="0 0 34.33 34.33"><defs><style>.cls-1{fill:none;stroke:#414042;stroke-miterlimit:10;}.cls-2{fill:#414042;}</style></defs><title>sm_github</title><circle class="cls-1" cx="17.17" cy="17.17" r="16.67"/><circle class="cls-1" cx="17.17" cy="17.17" r="16.67"/><path class="cls-2" d="M3468.39,2838.81a6.42,6.42,0,0,0,.54,2.86,3.59,3.59,0,0,0,1.79,1.68,7.78,7.78,0,0,0,2.51.71,21.44,21.44,0,0,0,2.48.13q0.58,0,1.44,0a12.67,12.67,0,0,0,1.54-.2,7,7,0,0,0,1.41-.4,4.79,4.79,0,0,0,1.24-.77,3.48,3.48,0,0,0,.88-1.12,6.58,6.58,0,0,0,.52-2.86,5.09,5.09,0,0,0-1.17-3.43,4.58,4.58,0,0,0,.23-1.46,4.14,4.14,0,0,0-.43-1.88,3.84,3.84,0,0,0-1.59.31,8.49,8.49,0,0,0-1.66,1.06,10.53,10.53,0,0,0-2.42-.28,11.85,11.85,0,0,0-2.66.3,8.55,8.55,0,0,0-1.68-1.08,3.84,3.84,0,0,0-1.59-.31,4.05,4.05,0,0,0-.44,1.88,4.67,4.67,0,0,0,.23,1.47,5.07,5.07,0,0,0-1.17,3.41h0Zm1.93,1.53a2.63,2.63,0,0,1,.61-1.77,2,2,0,0,1,1.6-.71,15.22,15.22,0,0,1,1.68.19,9.25,9.25,0,0,0,1.35.1,9.41,9.41,0,0,0,1.36-.1,16,16,0,0,1,1.68-.19,2,2,0,0,1,1.6.71,2.64,2.64,0,0,1,.61,1.77,3,3,0,0,1-.28,1.33,2.53,2.53,0,0,1-.69.88,3.2,3.2,0,0,1-1.06.52,8.66,8.66,0,0,1-2.5.32h-1.45a11.15,11.15,0,0,1-1.29-.07,5.8,5.8,0,0,1-1.23-.26,3.45,3.45,0,0,1-1-.51,2.47,2.47,0,0,1-.71-0.92,3,3,0,0,1-.27-1.3h0Zm1.38,0a2.37,2.37,0,0,0,.11.71,1.57,1.57,0,0,0,.39.67,0.81,0.81,0,0,0,1.24,0,2,2,0,0,0,.47-1.37,2.68,2.68,0,0,0-.1-0.7,1.57,1.57,0,0,0-.39-0.67,0.84,0.84,0,0,0-.62-0.28,0.82,0.82,0,0,0-.63.3A1.91,1.91,0,0,0,3471.7,2840.33Zm5.53,0a2.37,2.37,0,0,0,.11.71,1.58,1.58,0,0,0,.38.67,0.82,0.82,0,0,0,.61.28,0.84,0.84,0,0,0,.64-0.29,2,2,0,0,0,.47-1.37,2.67,2.67,0,0,0-.1-0.7,1.57,1.57,0,0,0-.39-0.67,0.84,0.84,0,0,0-.62-0.28,0.78,0.78,0,0,0-.61.3,1.89,1.89,0,0,0-.49,1.35h0Z" transform="translate(-3458.4 -2820.96)"/></svg>