<svg id="Layer_1" data-name="Layer 1" xmlns="http://www.w3.org/2000/svg" viewBox="0 0 34.33 34.33"><defs><style>.cls-1{fill:none;stroke:#414042;stroke-miterlimit:10;}.cls-2{fill:#414042;}</style></defs><title>sm_linkedin</title><circle class="cls-1" cx="17.17" cy="17.17" r="16.67"/><path class="cls-2" d="M3621.45,2831.62a1.29,1.29,0,1,0,0,2.57h0A1.29,1.29,0,1,0,3621.45,2831.62Z" transform="translate(-3608.65 -2819.96)"/><rect class="cls-2" x="11.55" y="15.24" width="2.47" height="7.44"/><path class="cls-2" d="M3628.74,2835a2.46,2.46,0,0,0-2.23,1.23v0h0l0,0v-1.05H3624c0,0.7,0,7.44,0,7.44h2.47v-4.15a1.69,1.69,0,0,1,.08-0.6,1.35,1.35,0,0,1,1.27-.9c0.89,0,1.25.68,1.25,1.68v4h2.47v-4.26C3631.59,2836.09,3630.37,2835,3628.74,2835Z" transform="translate(-3608.65 -2819.96)"/><circle class="cls-1" cx="17.17" cy="17.17" r="16.67"/><path class="cls-2" d="M3621.45,2831.62a1.29,1.29,0,1,0,0,2.57h0A1.29,1.29,0,1,0,3621.45,2831.62Z" transform="translate(-3608.65 -2819.96)"/><rect class="cls-2" x="11.55" y="15.24" width="2.47" height="7.44"/><path class="cls-2" d="M3628.74,2835a2.46,2.46,0,0,0-2.23,1.23v0h0l0,0v-1.05H3624c0,0.7,0,7.44,0,7.44h2.47v-4.15a1.69,1.69,0,0,1,.08-0.6,1.35,1.35,0,0,1,1.27-.9c0.89,0,1.25.68,1.25,1.68v4h2.47v-4.26C3631.59,2836.09,3630.37,2835,3628.74,2835Z" transform="translate(-3608.65 -2819.96)"/></svg>