<svg id="Layer_1" data-name="Layer 1" xmlns="http://www.w3.org/2000/svg" viewBox="0 0 34.33 34.33"><defs><style>.cls-1{fill:#414042;}.cls-2{fill:none;stroke:#414042;stroke-miterlimit:10;}</style></defs><title>sm_twitter</title><path class="cls-1" d="M3506.47,2808.09v0.15a7.19,7.19,0,0,1,0,.82,7.5,7.5,0,0,1-.23,1.28,7.63,7.63,0,0,1-1.56,3,7,7,0,0,1-3.73,2.31,7.95,7.95,0,0,1-2.29.21,7.35,7.35,0,0,1-3.45-1.07l-0.09-.06s0,0,0,0l0.24,0a5.23,5.23,0,0,0,3.4-1,0.39,0.39,0,0,0,.1-0.09h-0.28l-0.1,0-0.09,0-0.1,0-0.09,0-0.09,0-0.08,0-0.09,0-0.08,0-0.09,0-0.08,0-0.09,0-0.08,0-0.08-.06-0.07-.05-0.07-.06-0.08-.06-0.07-.06-0.07-.07-0.06-.06-0.07-.07-0.06-.07-0.06-.08-0.05-.07-0.06-.08,0-.08,0-.09,0-.08,0-.09,0-.08,0-.09,0-.09h0a2.54,2.54,0,0,0,.56,0,3,3,0,0,0,.47-0.06l0.07,0a2.61,2.61,0,0,1-1.71-1.25,2.46,2.46,0,0,1-.34-1.33c0.09,0,.18.09,0.27,0.12l0.28,0.09,0.28,0.06a1,1,0,0,0,.31,0,0.46,0.46,0,0,0-.08-0.07l-0.08-.07-0.08-.06-0.07-.07-0.07-.07-0.07-.08-0.06-.07-0.06-.08-0.06-.09-0.06-.08-0.05-.08,0-.09,0-.1,0-.09,0-.09,0-.1,0-.09,0-.09,0-.11,0-.1a1,1,0,0,1,0-.1v-0.21a0.92,0.92,0,0,1,0-.1v-0.1s0-.07,0-0.11v-0.1a0.93,0.93,0,0,1,0-.1v-0.1l0-.11,0-.1,0-.09,0-.11,0-.09,0-.09,0-.09,0-.1,0.05-.08a0.25,0.25,0,0,1,.07.07,7.45,7.45,0,0,0,4.09,2.48,7.18,7.18,0,0,0,1.13.16h0.08a3.15,3.15,0,0,1-.06-0.6,2.76,2.76,0,0,1,.07-0.59,2.65,2.65,0,0,1,.2-0.56,2.58,2.58,0,0,1,.32-0.5,2.61,2.61,0,0,1,3.92-.13,1.85,1.85,0,0,0,.28-0.06,5.14,5.14,0,0,0,1.27-.51,0.2,0.2,0,0,1,.09,0,2.21,2.21,0,0,1-.41.79,2.69,2.69,0,0,1-.66.6h0.06a5.1,5.1,0,0,0,.69-0.15,5.85,5.85,0,0,0,.59-0.2,0.09,0.09,0,0,1,.07,0,3.84,3.84,0,0,1-.57.72A5.4,5.4,0,0,1,3506.47,2808.09Z" transform="translate(-3484.25 -2793.51)"/><circle class="cls-2" cx="17.17" cy="17.17" r="16.67"/><circle class="cls-2" cx="17.17" cy="17.17" r="16.67"/></svg>